<?xml version="1.0" encoding="UTF-8" standalone="no"?>
<!-- Created with Inkscape (http://www.inkscape.org/) -->

<svg
   xmlns:dc="http://purl.org/dc/elements/1.1/"
   xmlns:cc="http://creativecommons.org/ns#"
   xmlns:rdf="http://www.w3.org/1999/02/22-rdf-syntax-ns#"
   xmlns:svg="http://www.w3.org/2000/svg"
   xmlns="http://www.w3.org/2000/svg"
   xmlns:sodipodi="http://sodipodi.sourceforge.net/DTD/sodipodi-0.dtd"
   xmlns:inkscape="http://www.inkscape.org/namespaces/inkscape"
   width="245.3672"
   height="58.694832"
   viewBox="0 0 64.920073 15.529673"
   version="1.1"
   id="svg9518"
   inkscape:version="0.92.0 r15299"
   sodipodi:docname="breeam.svg">
  <defs
     id="defs9512">
    <clipPath
       id="clipPath8933"
       clipPathUnits="userSpaceOnUse">
      <path
         inkscape:connector-curvature="0"
         id="path8931"
         d="m 42.52,729.922 h 182.525 v 83.622 H 42.52 Z" />
    </clipPath>
  </defs>
  <sodipodi:namedview
     id="base"
     pagecolor="#ffffff"
     bordercolor="#666666"
     borderopacity="1.0"
     inkscape:pageopacity="0.0"
     inkscape:pageshadow="2"
     inkscape:zoom="3.6857965"
     inkscape:cx="121.68373"
     inkscape:cy="3.9739664"
     inkscape:document-units="mm"
     inkscape:current-layer="layer1"
     showgrid="false"
     fit-margin-top="0"
     fit-margin-left="0"
     fit-margin-right="0"
     fit-margin-bottom="0"
     units="px"
     inkscape:window-width="1280"
     inkscape:window-height="744"
     inkscape:window-x="-4"
     inkscape:window-y="-4"
     inkscape:window-maximized="1" />
  <metadata
     id="metadata9515">
    <rdf:RDF>
      <cc:Work
         rdf:about="">
        <dc:format>image/svg+xml</dc:format>
        <dc:type
           rdf:resource="http://purl.org/dc/dcmitype/StillImage" />
        <dc:title></dc:title>
      </cc:Work>
    </rdf:RDF>
  </metadata>
  <g
     inkscape:label="Layer 1"
     inkscape:groupmode="layer"
     id="layer1"
     transform="translate(97.963345,64.460366)">
    <g
       id="g9740"
       transform="translate(0.2645842,-0.26458033)">
      <path
         d="m -70.952068,-62.228978 c 0.491067,0 0.781756,-0.269169 0.781756,-0.803981 0,-0.534811 -0.290689,-0.826205 -0.781756,-0.826205 h -5.711472 c -0.579967,0 -0.823736,0.24518 -0.823736,0.826205 v 13.228109 c 0,0.581024 0.243769,0.824794 0.823736,0.824794 h 5.711472 c 0.491067,0 0.781756,-0.289983 0.781756,-0.824794 0,-0.534459 -0.290689,-0.802923 -0.781756,-0.802923 h -4.907492 v -5.016852 h 3.480506 c 0.490361,0 0.757767,-0.267406 0.757767,-0.803275 0,-0.536223 -0.267406,-0.825148 -0.757767,-0.825148 h -3.480506 v -4.97593 z"
         style="fill:#50b737;fill-opacity:1;fill-rule:nonzero;stroke:none;stroke-width:0.35277778"
         id="path8937"
         inkscape:connector-curvature="0" />
      <path
         d="m -57.426428,-54.06309 2.006247,-6.138686 2.00907,6.138686 z m 2.89948,-9.013472 c -0.179916,-0.558447 -0.357363,-0.782461 -0.893233,-0.782461 -0.535516,0 -0.712964,0.224014 -0.893586,0.782461 l -4.192058,13.049602 c -0.08996,0.28822 -0.197203,0.777875 0.522817,1.010709 0.631119,0.206022 0.949677,-0.207786 1.038224,-0.476603 l 0.939095,-2.944989 h 5.173133 l 0.939447,2.944989 c 0.08749,0.268817 0.381706,0.727428 1.080559,0.493183 0.648758,-0.217664 0.570089,-0.764116 0.49918,-1.007886 z"
         style="fill:#50b737;fill-opacity:1;fill-rule:nonzero;stroke:none;stroke-width:0.35277778"
         id="path8941"
         inkscape:connector-curvature="0" />
      <path
         d="m -39.667383,-63.859023 c -0.5588,0 -0.623006,0.267758 -0.958144,0.826206 l -3.347509,5.732991 -3.345391,-5.732991 c -0.335139,-0.558448 -0.401109,-0.826206 -0.960614,-0.826206 -0.57785,0 -0.8255,0.245181 -0.8255,0.826206 v 13.227755 c 0,0.581025 0.24765,0.824794 0.8255,0.824794 0.581025,0 0.803628,-0.243769 0.803628,-0.824794 v -10.1727 l 2.60985,4.395611 c 0.202494,0.335492 0.406752,0.692503 0.892527,0.692503 0.487539,0 0.693914,-0.357011 0.891117,-0.692503 l 2.612319,-4.395611 v 10.1727 c 0,0.581025 0.222603,0.824794 0.802217,0.824794 0.580319,0 0.8255,-0.243769 0.8255,-0.824794 v -13.227755 c 0,-0.581025 -0.245181,-0.826206 -0.8255,-0.826206"
         style="fill:#50b737;fill-opacity:1;fill-rule:nonzero;stroke:none;stroke-width:0.35277778"
         id="path8945"
         inkscape:connector-curvature="0" />
      <path
         d="m -62.308484,-62.228978 c 0.492478,0 0.781403,-0.269169 0.781403,-0.803981 0,-0.534811 -0.288925,-0.826205 -0.781403,-0.826205 h -5.714647 c -0.581025,0 -0.824442,0.24518 -0.824442,0.826205 v 13.228109 c 0,0.581024 0.243417,0.824794 0.824442,0.824794 h 5.714647 c 0.492478,0 0.781403,-0.289983 0.781403,-0.824794 0,-0.534459 -0.288925,-0.802923 -0.781403,-0.802923 h -4.910667 v -5.016852 h 3.482975 c 0.490009,0 0.758473,-0.267406 0.758473,-0.803275 0,-0.536223 -0.268464,-0.825148 -0.758473,-0.825148 h -3.482975 v -4.97593 z"
         style="fill:#50b737;fill-opacity:1;fill-rule:nonzero;stroke:none;stroke-width:0.35277778"
         id="path8949"
         inkscape:connector-curvature="0" />
      <path
         d="m -85.852096,-57.257846 v -4.94665 h 3.069167 c 1.415697,0 2.227438,0.860425 2.227438,2.360083 0,0 0.164042,1.075267 -0.553155,1.939925 -0.382058,0.460023 -0.891117,0.646642 -1.537758,0.646642 z m 3.996267,1.579386 c 0.782461,-0.156633 1.455561,-0.557036 1.985786,-1.169458 1.101725,-1.27247 0.942269,-2.996495 0.942269,-2.996495 0,-2.384425 -1.5494,-3.987447 -3.855155,-3.987447 0,0 -3.991681,0.006 -4.042481,0.01658 -0.459317,0.04621 -0.658283,0.294569 -0.658283,0.814916 v 13.231989 c 0,0.580672 0.244475,0.824442 0.8255,0.824442 0.578555,0 0.802922,-0.24377 0.802922,-0.824442 V -55.6199 h 2.184047 l 3.404658,6.209594 c 0.2794,0.508706 0.61207,0.605014 1.120775,0.325614 0.506942,-0.279752 0.585612,-0.602191 0.305506,-1.110191 z"
         style="fill:#50b737;fill-opacity:1;fill-rule:nonzero;stroke:none;stroke-width:0.35277778"
         id="path8953"
         inkscape:connector-curvature="0" />
      <path
         d="m -90.470698,-53.010895 c 0,1.499658 -0.8128,2.359731 -2.227792,2.359731 h -3.637138 v -4.975931 h 3.774016 c 0.645583,0 1.148645,0.222956 1.537053,0.676628 0.557036,0.653344 0.553861,1.939572 0.553861,1.939572 m -5.86493,-9.221258 h 3.069872 c 1.415697,0 2.227439,0.860425 2.227439,2.35973 0,0 0.125941,1.173692 -0.553156,1.939573 -0.396169,0.447322 -0.891469,0.676627 -1.537405,0.676627 h -3.20675 z m 6.550377,6.225822 c -0.23883,-0.264583 -0.703791,-0.60325 -0.782461,-0.646289 0.07303,-0.07197 0.144639,-0.145697 0.215547,-0.223661 1.087967,-1.208617 0.94227,-2.996142 0.94227,-2.996142 0,-2.384425 -1.5494,-3.987447 -3.855861,-3.987447 h -3.883378 c -0.449792,0 -0.814211,0.364067 -0.814211,0.813859 v 13.209763 c 0,0.448028 0.364419,0.812447 0.814211,0.812447 h 4.450644 c 2.305756,0 3.855509,-1.601611 3.855509,-3.987094 0,0 0.162277,-1.769533 -0.94227,-2.995436"
         style="fill:#50b737;fill-opacity:1;fill-rule:nonzero;stroke:none;stroke-width:0.35277778"
         id="path8957"
         inkscape:connector-curvature="0" />
      <path
         d="m -35.918766,-62.950127 v 0.950736 h 0.64135 c 0.233186,0 0.355247,-0.173214 0.355247,-0.4826 0,-0.331964 -0.204611,-0.468136 -0.363714,-0.468136 z m 0.5588,-0.279047 c 0.443794,0 0.709083,0.286808 0.709083,0.747183 0,0.4826 -0.21978,0.724253 -0.520347,0.755297 l 0.436739,0.790928 c 0.01588,0.02328 0.03034,0.04551 0.03034,0.09842 0,0.113242 -0.181328,0.19685 -0.264231,0.05292 l -0.5207,-0.935214 h -0.429683 v 0.86748 c 0,0.09701 -0.0381,0.143228 -0.136172,0.143228 -0.09807,0 -0.135114,-0.04621 -0.135114,-0.143228 v -2.233788 c 0,-0.09807 0.03704,-0.143228 0.135114,-0.143228 z m -0.105833,2.964744 c 0.799041,0 1.622072,-0.693914 1.622072,-1.764947 0,-0.762 -0.672042,-1.644297 -1.727906,-1.644297 -0.875594,0 -1.675341,0.686153 -1.675341,1.7272 0,0.82938 0.649464,1.682044 1.781175,1.682044 m -2.0447,-1.689805 c 0,-1.055864 0.837141,-1.976967 2.036586,-1.976967 0.989541,0 1.901472,0.837494 1.901472,1.923697 0,1.155347 -1.003653,2.000603 -1.946628,2.000603 -1.207558,0 -1.99143,-0.883356 -1.99143,-1.947333"
         style="fill:#50b737;fill-opacity:1;fill-rule:nonzero;stroke:none;stroke-width:0.35277778"
         id="path8961"
         inkscape:connector-curvature="0" />
    </g>
  </g>
</svg>
