<svg width="320" height="100" viewBox="0 0 320 100" xmlns="http://www.w3.org/2000/svg">
  <title>GreenChainz Logo</title>
  <!-- Left chain link -->
  <path d="M 80 20 C 60 20, 40 30, 40 50 S 60 80, 80 80 L 110 80" stroke="#64748B" stroke-width="12" fill="none" stroke-linecap="round" />
  <!-- Center Leaf -->
  <g transform="translate(120, 5) scale(0.9)">
    <path fill="#1F9D55" d="M50 95 L50 80 M50 80 C 20 70, 10 40, 20 20 L50 0 L80 20 C90 40, 80 70, 50 80 Z"/>
    <path fill="#1F9D55" d="M50 45 C 40 40, 20 40, 10 50 Z"/>
    <path fill="#1F9D55" d="M50 45 C 60 40, 80 40, 90 50 Z"/>
    <path fill="#1F9D55" d="M50 25 C 40 20, 30 20, 20 30 Z"/>
    <path fill="#1F9D55" d="M50 25 C 60 20, 70 20, 80 30 Z"/>
  </g>
  <!-- Right chain link -->
  <path d="M 240 20 C 260 20, 280 30, 280 50 S 260 80, 240 80 L 210 80" stroke="#64748B" stroke-width="12" fill="none" stroke-linecap="round" />
</svg>
