<svg width="128" height="128" viewBox="0 0 128 128" fill="none" xmlns="http://www.w3.org/2000/svg">
<g clip-path="url(#clip0_27612_4754)">
<path fill-rule="evenodd" clip-rule="evenodd" d="M102.737 95H26.2373C11.8779 95 0.237305 83.3594 0.237305 69C0.237305 55.0375 11.2433 43.6455 25.0531 43.0265C28.7333 25.3115 44.4308 12 63.2373 12C82.3953 12 98.3269 25.8137 101.615 44.0242C101.987 44.0081 102.361 44 102.737 44C116.821 44 128.237 55.4167 128.237 69.5C128.237 83.4162 117.09 94.7288 103.237 94.9952V95H102.737Z" fill="url(#paint0_linear_27612_4754)"/>
<path fill-rule="evenodd" clip-rule="evenodd" d="M102.737 95H26.2373C11.8779 95 0.237305 83.3594 0.237305 69C0.237305 55.0375 11.2433 43.6455 25.0531 43.0265C28.7333 25.3115 44.4308 12 63.2373 12C82.3953 12 98.3269 25.8137 101.615 44.0242C101.987 44.0081 102.361 44 102.737 44C116.821 44 128.237 55.4167 128.237 69.5C128.237 83.4162 117.09 94.7288 103.237 94.9952V95H102.737Z" fill="url(#paint1_linear_27612_4754)"/>
<path opacity="0.3" fill-rule="evenodd" clip-rule="evenodd" d="M26.2373 93H102.737H103.237V92.9952C116.756 92.7352 127.699 81.9543 128.218 68.5C128.231 68.8317 128.237 69.1651 128.237 69.5C128.237 83.4162 117.09 94.7288 103.237 94.9952V95H102.737H26.2373C11.8779 95 0.237305 83.3594 0.237305 69C0.237305 68.6651 0.243635 68.3318 0.256181 68C0.78168 81.896 12.2127 93 26.2373 93Z" fill="black"/>
<path opacity="0.1" fill-rule="evenodd" clip-rule="evenodd" d="M128.218 70.5C127.693 56.8803 116.486 46 102.737 46C102.361 46 101.987 46.0081 101.615 46.0242C98.3269 27.8137 82.3953 14 63.2373 14C44.4308 14 28.7333 27.3115 25.0531 45.0265C11.5745 45.6307 0.76681 56.4973 0.256181 70C0.243635 69.6682 0.237305 69.3349 0.237305 69C0.237305 55.0375 11.2433 43.6455 25.0531 43.0265C28.7333 25.3115 44.4308 12 63.2373 12C82.3953 12 98.3269 25.8137 101.615 44.0242C101.987 44.0081 102.361 44 102.737 44C116.821 44 128.237 55.4167 128.237 69.5C128.237 69.8349 128.231 70.1683 128.218 70.5Z" fill="white"/>
<circle opacity="0.6" cx="64.2373" cy="85" r="20" fill="#091F2C"/>
<path fill-rule="evenodd" clip-rule="evenodd" d="M84.362 104.468C89.2372 99.4292 92.2373 92.5649 92.2373 85C92.2373 69.536 79.7013 57 64.2373 57C48.7733 57 36.2373 69.536 36.2373 85C36.2373 100.464 48.7733 113 64.2373 113C69.2319 113 73.921 111.692 77.9809 109.401L91.4089 122.828C92.971 124.391 95.5036 124.391 97.0657 122.828C98.6278 121.266 98.6278 118.734 97.0657 117.172L84.362 104.468ZM84.2373 85C84.2373 96.0457 75.283 105 64.2373 105C53.1916 105 44.2373 96.0457 44.2373 85C44.2373 73.9543 53.1916 65 64.2373 65C75.283 65 84.2373 73.9543 84.2373 85Z" fill="url(#paint2_linear_27612_4754)"/>
<path fill-rule="evenodd" clip-rule="evenodd" d="M84.362 104.468C89.2372 99.4292 92.2373 92.5649 92.2373 85C92.2373 69.536 79.7013 57 64.2373 57C48.7733 57 36.2373 69.536 36.2373 85C36.2373 100.464 48.7733 113 64.2373 113C69.2319 113 73.921 111.692 77.9809 109.401L91.4089 122.828C92.971 124.391 95.5036 124.391 97.0657 122.828C98.6278 121.266 98.6278 118.734 97.0657 117.172L84.362 104.468ZM84.2373 85C84.2373 96.0457 75.283 105 64.2373 105C53.1916 105 44.2373 96.0457 44.2373 85C44.2373 73.9543 53.1916 65 64.2373 65C75.283 65 84.2373 73.9543 84.2373 85Z" fill="url(#paint3_linear_27612_4754)"/>
<path opacity="0.2" fill-rule="evenodd" clip-rule="evenodd" d="M92.2198 84C91.9681 91.1688 89.0215 97.6521 84.362 102.468L85.3203 103.426C89.6274 98.5022 92.2373 92.0559 92.2373 85C92.2373 84.6653 92.2314 84.3319 92.2198 84ZM36.2548 84C36.7814 99.0008 49.1081 111 64.2373 111C69.2319 111 73.921 109.692 77.9809 107.401L91.4089 120.828C92.971 122.391 95.5036 122.391 97.0657 120.828C97.5903 120.304 97.9387 119.67 98.1109 119C98.4517 120.325 98.1033 121.791 97.0657 122.828C95.5036 124.391 92.971 124.391 91.4089 122.828L77.9809 109.401C73.921 111.692 69.2319 113 64.2373 113C48.7733 113 36.2373 100.464 36.2373 85C36.2373 84.6653 36.2432 84.3319 36.2548 84ZM84.2127 84C84.229 83.6687 84.2373 83.3353 84.2373 83C84.2373 71.9543 75.283 63 64.2373 63C53.1916 63 44.2373 71.9543 44.2373 83C44.2373 83.3353 44.2456 83.6687 44.2619 84C44.7829 73.4189 53.5269 65 64.2373 65C74.9477 65 83.6917 73.4189 84.2127 84Z" fill="black"/>
<path opacity="0.3" fill-rule="evenodd" clip-rule="evenodd" d="M84.8475 104.953C84.6878 105.127 84.5259 105.298 84.362 105.468L97.0657 118.172C97.7193 118.825 98.0995 119.649 98.2061 120.5C98.3543 119.317 97.9742 118.08 97.0657 117.172L84.8475 104.953ZM92.2373 85C92.2373 85.167 92.2358 85.3337 92.2329 85.5C91.9662 70.2667 79.5343 58 64.2373 58C48.9403 58 36.5084 70.2667 36.2417 85.5C36.2388 85.3337 36.2373 85.167 36.2373 85C36.2373 69.536 48.7733 57 64.2373 57C79.7013 57 92.2373 69.536 92.2373 85ZM84.2312 85.5C83.9658 96.3147 75.1158 105 64.2373 105C53.3588 105 44.5088 96.3147 44.2434 85.5C44.2394 85.6662 44.2373 85.8328 44.2373 86C44.2373 97.0457 53.1916 106 64.2373 106C75.283 106 84.2373 97.0457 84.2373 86C84.2373 85.8328 84.2353 85.6662 84.2312 85.5Z" fill="white"/>
</g>
<defs>
<linearGradient id="paint0_linear_27612_4754" x1="120.237" y1="5.70089" x2="83.1007" y2="117.716" gradientUnits="userSpaceOnUse">
<stop stop-color="#2A446F"/>
<stop offset="1" stop-color="#091F2C"/>
</linearGradient>
<linearGradient id="paint1_linear_27612_4754" x1="64.2373" y1="12" x2="64.2373" y2="95" gradientUnits="userSpaceOnUse">
<stop stop-color="white" stop-opacity="0.1"/>
<stop offset="0.0231654" stop-color="white" stop-opacity="0"/>
<stop offset="0.97" stop-opacity="0"/>
<stop offset="1" stop-opacity="0.3"/>
</linearGradient>
<linearGradient id="paint2_linear_27612_4754" x1="102.447" y1="57" x2="47.3034" y2="125.523" gradientUnits="userSpaceOnUse">
<stop offset="0.0848604" stop-color="#49C5B1"/>
<stop offset="0.477122" stop-color="#0078D4"/>
</linearGradient>
<linearGradient id="paint3_linear_27612_4754" x1="32.0274" y1="132.16" x2="91.3807" y2="75.4379" gradientUnits="userSpaceOnUse">
<stop offset="0.0001" stop-color="#C03BC4"/>
<stop offset="1" stop-color="#C03BC4" stop-opacity="0"/>
</linearGradient>
<clipPath id="clip0_27612_4754">
<rect width="127" height="128" fill="white" transform="translate(0.237305)"/>
</clipPath>
</defs>
</svg>
