<svg xmlns="http://www.w3.org/2000/svg" width="1280" height="720" viewBox="0 0 1280 720"><rect width="100%" height="100%" fill="#10b981"/><path fill="#ffffff" d="M270.485 352.96h9.04q3.33 0 5.81-.84 2.47-.83 4.11-2.38 1.65-1.56 2.46-3.78.81-2.23.81-4.97 0-2.61-.81-4.73-.81-2.11-2.43-3.6-1.62-1.48-4.1-2.27-2.47-.79-5.85-.79h-9.04zm-12.11-32.72h21.15q6.53 0 11.3 1.53t7.87 4.27q3.11 2.75 4.61 6.57 1.51 3.83 1.51 8.38 0 4.72-1.57 8.66-1.58 3.94-4.73 6.77-3.15 2.84-7.9 4.41-4.74 1.58-11.09 1.58h-9.04v22.9h-12.11zm54.09-1.8h11.12v66.87h-11.12zm50.9 20.7h11.11v46.17h-6.79q-2.21 0-2.79-2.02l-.77-3.69q-2.83 2.88-6.25 4.65-3.42 1.78-8.06 1.78-3.78 0-6.68-1.28t-4.88-3.62-3-5.56q-1.01-3.22-1.01-7.09v-29.34h11.12v29.34q0 4.23 1.95 6.55 1.96 2.32 5.88 2.32 2.88 0 5.4-1.29 2.52-1.28 4.77-3.53zm38.97 21.96q2.07 0 3.6-.56t2.54-1.55 1.53-2.39.52-3.06q0-3.42-2.05-5.42-2.05-2.01-6.14-2.01-4.1 0-6.15 2.01-2.04 2-2.04 5.42 0 1.62.51 3.02.52 1.39 1.53 2.4 1.02 1.02 2.57 1.58t3.58.56m12.55 26.28q0-1.35-.81-2.21-.81-.85-2.2-1.32-1.4-.47-3.27-.7-1.86-.22-3.96-.34-2.09-.11-4.32-.2-2.22-.09-4.34-.36-1.84 1.04-2.99 2.43-1.15 1.4-1.15 3.24 0 1.21.61 2.27t1.93 1.83q1.33.76 3.45 1.19 2.11.42 5.17.42 3.11 0 5.36-.47t3.71-1.3q1.46-.84 2.14-1.98.67-1.15.67-2.5m-2.2-46.66h13.27v4.14q0 1.97-2.38 2.43l-4.14.76q.94 2.38.94 5.22 0 3.42-1.37 6.19-1.37 2.76-3.8 4.7t-5.74 2.99q-3.31 1.06-7.13 1.06-1.35 0-2.61-.13-1.26-.14-2.48-.36-2.16 1.3-2.16 2.92 0 1.39 1.28 2.05 1.29.65 3.4.92 2.12.27 4.82.34t5.53.29q2.84.23 5.54.79t4.81 1.78q2.12 1.21 3.4 3.3 1.28 2.1 1.28 5.38 0 3.06-1.51 5.94-1.5 2.88-4.36 5.13t-7.02 3.62q-4.16 1.38-9.47 1.38-5.22 0-9.09-1.02-3.87-1.01-6.44-2.7-2.56-1.69-3.82-3.89-1.26-2.21-1.26-4.59 0-3.24 1.95-5.42 1.96-2.18 5.38-3.49-1.84-.94-2.92-2.52t-1.08-4.14q0-1.03.38-2.14.38-1.1 1.12-2.18.75-1.08 1.87-2.05 1.13-.97 2.66-1.73-3.51-1.89-5.52-5.04-2-3.15-2-7.38 0-3.42 1.37-6.19 1.38-2.76 3.83-4.72t5.8-3q3.36-1.03 7.32-1.03 2.97 0 5.58.61 2.61.6 4.77 1.78m20.65-1.58h11.16v46.17h-11.16zm12.69-13.46q0 1.45-.58 2.71-.59 1.26-1.56 2.2-.96.95-2.27 1.51-1.3.56-2.79.56-1.44 0-2.72-.56t-2.23-1.51q-.94-.94-1.51-2.2-.56-1.26-.56-2.71 0-1.48.56-2.78.57-1.31 1.51-2.25.95-.95 2.23-1.51t2.72-.56q1.49 0 2.79.56 1.31.56 2.27 1.51.97.94 1.56 2.25.58 1.3.58 2.78m19.44 15.49.77 3.64q1.39-1.39 2.94-2.59 1.56-1.19 3.29-2.02 1.73-.84 3.71-1.31t4.32-.47q3.78 0 6.71 1.28 2.92 1.29 4.88 3.6 1.96 2.32 2.97 5.54t1.01 7.09v29.38h-11.11v-29.38q0-4.24-1.94-6.55-1.93-2.32-5.89-2.32-2.88 0-5.4 1.3-2.52 1.31-4.77 3.56v33.39h-11.12v-46.17h6.8q2.16 0 2.83 2.03m122.54 11.61q0 7.15-2.39 13.14-2.38 5.98-6.7 10.3t-10.4 6.71q-6.07 2.38-13.5 2.38h-24.79v-65.07h24.79q7.43 0 13.5 2.41 6.08 2.41 10.4 6.7 4.32 4.3 6.7 10.29 2.39 5.98 2.39 13.14m-12.42 0q0-5.36-1.42-9.61t-4.1-7.2q-2.67-2.95-6.48-4.52-3.8-1.58-8.57-1.58h-12.64v45.81h12.64q4.77 0 8.57-1.58 3.81-1.57 6.48-4.52 2.68-2.95 4.1-7.2t1.42-9.6m30.1 4.14h20.97q0-2.16-.61-4.08-.6-1.91-1.82-3.35-1.21-1.44-3.08-2.27t-4.34-.83q-4.82 0-7.59 2.74-2.76 2.74-3.53 7.79m28.35 6.7h-28.57q.27 3.56 1.26 6.14.99 2.59 2.61 4.28t3.84 2.52q2.23.83 4.93.83t4.66-.63 3.42-1.4q1.46-.76 2.56-1.39 1.11-.63 2.14-.63 1.4 0 2.07 1.04l3.2 4.05q-1.85 2.16-4.14 3.62-2.3 1.46-4.8 2.34-2.49.88-5.08 1.24-2.59.35-5.02.35-4.81 0-8.95-1.59-4.14-1.6-7.2-4.73t-4.82-7.74q-1.75-4.61-1.75-10.68 0-4.73 1.53-8.89 1.53-4.17 4.38-7.25 2.86-3.08 6.98-4.88t9.29-1.8q4.37 0 8.06 1.4 3.69 1.39 6.34 4.07 2.66 2.68 4.16 6.57 1.51 3.89 1.51 8.89 0 2.51-.54 3.39t-2.07.88m22.05 21.69h-11.11v-46.17h6.79q2.16 0 2.84 2.03l.72 3.41q1.21-1.34 2.54-2.47 1.33-1.12 2.83-1.93 1.51-.82 3.24-1.29 1.74-.47 3.81-.47 4.36 0 7.17 2.36 2.82 2.37 4.21 6.28 1.08-2.3 2.7-3.94t3.56-2.67q1.93-1.04 4.11-1.53 2.19-.5 4.39-.5 3.83 0 6.8 1.17t4.99 3.42q2.03 2.25 3.08 5.49 1.06 3.24 1.06 7.43v29.38h-11.11v-29.38q0-4.42-1.94-6.64-1.93-2.23-5.67-2.23-1.71 0-3.17.59-1.46.58-2.57 1.68-1.1 1.1-1.73 2.77t-.63 3.83v29.38h-11.16v-29.38q0-4.64-1.87-6.75-1.86-2.12-5.46-2.12-2.43 0-4.53 1.19-2.09 1.19-3.89 3.26zm84.69-46.89q5.13 0 9.34 1.66 4.21 1.67 7.2 4.73t4.61 7.47 1.62 9.85q0 5.5-1.62 9.9-1.62 4.41-4.61 7.52t-7.2 4.77-9.34 1.66q-5.17 0-9.4-1.66t-7.23-4.77q-2.99-3.11-4.63-7.52-1.64-4.4-1.64-9.9 0-5.44 1.64-9.85t4.63-7.47q3-3.06 7.23-4.73 4.23-1.66 9.4-1.66m0 39.01q5.76 0 8.53-3.86 2.77-3.88 2.77-11.35 0-7.46-2.77-11.38-2.77-3.91-8.53-3.91-5.85 0-8.66 3.93-2.81 3.94-2.81 11.36 0 7.43 2.81 11.32t8.66 3.89m100.89-57.19h9.77l-26.28 65.07h-10.94l-26.28-65.07h9.72q1.58 0 2.57.77.99.76 1.48 1.98l15.35 39.69q.76 1.93 1.46 4.25t1.33 4.84q.54-2.52 1.17-4.84t1.39-4.25l15.26-39.69q.36-1.04 1.41-1.9 1.06-.85 2.59-.85m15.12 18.9h11.16v46.17h-11.16zm12.69-13.46q0 1.45-.58 2.71-.59 1.26-1.56 2.2-.96.95-2.27 1.51-1.3.56-2.79.56-1.44 0-2.72-.56t-2.23-1.51q-.94-.94-1.51-2.2-.56-1.26-.56-2.71 0-1.48.56-2.78.57-1.31 1.51-2.25.95-.95 2.23-1.51t2.72-.56q1.49 0 2.79.56 1.31.56 2.27 1.51.97.94 1.56 2.25.58 1.3.58 2.78m38.79 45.95v-20.7q-1.89-2.29-4.12-3.24-2.22-.94-4.79-.94-2.52 0-4.54.94-2.03.95-3.47 2.86t-2.2 4.86q-.77 2.95-.77 6.95 0 4.05.65 6.86.66 2.81 1.87 4.59 1.22 1.78 2.97 2.57 1.76.79 3.92.79 3.46 0 5.89-1.44 2.43-1.45 4.59-4.1m0-53.19h11.12v66.87h-6.8q-2.2 0-2.79-2.02l-.94-4.46q-2.79 3.2-6.42 5.18-3.62 1.97-8.43 1.97-3.78 0-6.93-1.57-3.15-1.58-5.43-4.57-2.27-2.99-3.51-7.4-1.23-4.41-1.23-10.08 0-5.13 1.39-9.54 1.4-4.41 4.01-7.65t6.25-5.06q3.65-1.82 8.19-1.82 3.87 0 6.62 1.21 2.74 1.22 4.9 3.29zm30.87 38.48h20.97q0-2.16-.61-4.08-.6-1.91-1.82-3.35-1.21-1.44-3.08-2.27t-4.34-.83q-4.82 0-7.59 2.74-2.76 2.74-3.53 7.79m28.35 6.7h-28.57q.27 3.56 1.26 6.14.99 2.59 2.61 4.28t3.84 2.52q2.23.83 4.93.83t4.66-.63 3.42-1.4q1.46-.76 2.56-1.39 1.11-.63 2.14-.63 1.4 0 2.07 1.04l3.2 4.05q-1.85 2.16-4.14 3.62-2.3 1.46-4.8 2.34-2.49.88-5.08 1.24-2.59.35-5.02.35-4.81 0-8.95-1.59-4.14-1.6-7.2-4.73t-4.82-7.74q-1.75-4.61-1.75-10.68 0-4.73 1.53-8.89 1.53-4.17 4.38-7.25 2.86-3.08 6.98-4.88t9.29-1.8q4.37 0 8.06 1.4 3.69 1.39 6.34 4.07 2.66 2.68 4.16 6.57 1.51 3.89 1.51 8.89 0 2.51-.54 3.39t-2.07.88m31.37-25.2q5.13 0 9.33 1.66 4.21 1.67 7.2 4.73 3 3.06 4.62 7.47t1.62 9.85q0 5.5-1.62 9.9-1.62 4.41-4.62 7.52-2.99 3.11-7.2 4.77-4.2 1.66-9.33 1.66-5.18 0-9.41-1.66t-7.22-4.77-4.64-7.52q-1.64-4.4-1.64-9.9 0-5.44 1.64-9.85 1.65-4.41 4.64-7.47t7.22-4.73q4.23-1.66 9.41-1.66m0 39.01q5.76 0 8.52-3.86 2.77-3.88 2.77-11.35 0-7.46-2.77-11.38-2.76-3.91-8.52-3.91-5.85 0-8.67 3.93-2.81 3.94-2.81 11.36 0 7.43 2.81 11.32 2.82 3.89 8.67 3.89"/></svg>