<svg xmlns="http://www.w3.org/2000/svg" width="800" height="600" viewBox="0 0 800 600"><rect width="100%" height="100%" fill="#1e293b"/><path fill="#ffffff" d="m181.495 280.895-1.71 3.24q-.31.54-.65.78-.35.24-.86.24-.53 0-1.16-.39-.62-.4-1.49-.88-.87-.49-2.03-.88-1.16-.4-2.74-.4-1.42 0-2.5.35-1.07.34-1.79.95-.73.62-1.09 1.47-.35.85-.35 1.87 0 1.3.72 2.17.73.87 1.93 1.48t2.73 1.1q1.53.48 3.13 1.03 1.61.55 3.14 1.28 1.53.72 2.73 1.83t1.92 2.72q.73 1.6.73 3.9 0 2.5-.85 4.68-.86 2.18-2.5 3.8-1.65 1.62-4.02 2.55t-5.43.93q-1.76 0-3.47-.35-1.71-.34-3.28-.98-1.56-.64-2.94-1.53t-2.45-1.99l2.02-3.29q.25-.35.66-.6.41-.24.87-.24.63 0 1.37.52.74.53 1.76 1.16 1.02.64 2.39 1.17 1.36.52 3.27.52 2.94 0 4.54-1.39 1.61-1.39 1.61-3.99 0-1.46-.73-2.37-.73-.92-1.92-1.55-1.2-.62-2.73-1.06-1.53-.43-3.11-.94t-3.11-1.22q-1.53-.72-2.73-1.86-1.2-1.15-1.93-2.87-.72-1.72-.72-4.25 0-2.01.8-3.93.8-1.91 2.33-3.39t3.78-2.37q2.24-.89 5.15-.89 3.26 0 6.01 1.02 2.76 1.02 4.7 2.85m14.35 33.82q-3.41 0-5.24-1.93-1.82-1.92-1.82-5.31v-14.62h-2.68q-.51 0-.86-.33-.36-.33-.36-.99v-2.5l4.21-.69 1.32-7.14q.13-.51.49-.79.35-.28.91-.28h3.27v8.24h6.99v4.48h-6.99v14.18q0 1.23.6 1.91.6.69 1.64.69.59 0 .98-.14.4-.14.69-.29.3-.15.53-.29.22-.14.45-.14.28 0 .46.14t.39.42l1.88 3.06q-1.37 1.14-3.16 1.73-1.78.59-3.7.59m15.23-16.5h11.88q0-1.22-.34-2.31-.35-1.08-1.04-1.9-.69-.81-1.74-1.29-1.06-.47-2.46-.47-2.73 0-4.3 1.56-1.57 1.55-2 4.41m16.06 3.8h-16.19q.15 2.01.71 3.48t1.48 2.42q.92.96 2.18 1.43t2.79.47 2.64-.36q1.11-.35 1.94-.79.83-.43 1.46-.79.62-.35 1.21-.35.79 0 1.17.58l1.81 2.3q-1.05 1.22-2.35 2.05t-2.71 1.33q-1.42.49-2.88.7-1.47.2-2.85.2-2.72 0-5.07-.9-2.35-.91-4.08-2.68t-2.73-4.39q-.99-2.61-.99-6.05 0-2.68.86-5.04.87-2.36 2.49-4.1 1.62-1.75 3.95-2.77 2.34-1.02 5.27-1.02 2.47 0 4.56.79t3.6 2.31q1.5 1.51 2.36 3.72.85 2.21.85 5.04 0 1.42-.31 1.92-.3.5-1.17.5m12.5-6.22v11.73q1.07 1.3 2.33 1.83 1.26.54 2.74.54 1.43 0 2.58-.54 1.14-.53 1.95-1.63.8-1.1 1.23-2.77.44-1.67.44-3.94 0-2.29-.37-3.88-.37-1.6-1.06-2.59-.69-1-1.67-1.46t-2.23-.46q-1.97 0-3.34.83-1.38.83-2.6 2.34m-.84-6.51.51 2.43q1.6-1.81 3.64-2.94 2.04-1.12 4.8-1.12 2.14 0 3.91.89 1.77.9 3.06 2.59 1.29 1.7 1.99 4.19.7 2.48.7 5.69 0 2.94-.79 5.44-.79 2.49-2.26 4.33-1.46 1.84-3.54 2.87t-4.66 1.03q-2.19 0-3.74-.67-1.56-.68-2.78-1.88v10.71h-6.3v-34.7h3.85q1.22 0 1.61 1.14m52.55 20.3h6.63v4.72h-20.4v-4.72h7.47v-21.49q0-1.28.08-2.63l-5.31 4.44q-.45.35-.9.44t-.84.02q-.4-.08-.7-.27-.31-.19-.46-.42l-1.99-2.73 11.24-9.56h5.18zm12.52 1.25q0-.79.29-1.5.3-.72.81-1.23t1.22-.81q.72-.31 1.53-.31.82 0 1.52.31.7.3 1.22.81.53.51.83 1.23.31.71.31 1.5 0 .82-.31 1.52-.3.7-.83 1.21-.52.51-1.22.8-.7.3-1.52.3-.81 0-1.53-.3-.71-.29-1.22-.8t-.81-1.21q-.29-.7-.29-1.52m0-18.18q0-.79.29-1.5.3-.72.81-1.23t1.22-.81q.72-.31 1.53-.31.82 0 1.52.31.7.3 1.22.81.53.51.83 1.23.31.71.31 1.5 0 .82-.31 1.52-.3.7-.83 1.21-.52.51-1.22.8-.7.3-1.52.3-.81 0-1.53-.3-.71-.29-1.22-.8t-.81-1.21q-.29-.7-.29-1.52m33.79 15.99h14.74v5.66h-21.6v-36.87h6.86zm30.22-20.91q2.9 0 5.29.94 2.38.95 4.08 2.68 1.69 1.73 2.61 4.23t.92 5.59q0 3.11-.92 5.61t-2.61 4.26q-1.7 1.76-4.08 2.7-2.39.94-5.29.94-2.94 0-5.33-.94-2.4-.94-4.1-2.7-1.69-1.76-2.62-4.26t-.93-5.61q0-3.09.93-5.59t2.62-4.23q1.7-1.73 4.1-2.68 2.39-.94 5.33-.94m0 22.11q3.26 0 4.83-2.2 1.57-2.19 1.57-6.42t-1.57-6.45-4.83-2.22q-3.32 0-4.91 2.23-1.6 2.23-1.6 6.44t1.6 6.41q1.59 2.21 4.91 2.21m27.28-9.26q1.17 0 2.04-.32t1.44-.88q.58-.56.87-1.35t.29-1.73q0-1.94-1.16-3.08-1.16-1.13-3.48-1.13t-3.48 1.13q-1.16 1.14-1.16 3.08 0 .91.29 1.71.3.79.87 1.36t1.45.89 2.03.32m7.12 14.89q0-.76-.46-1.25-.46-.48-1.25-.75t-1.85-.39q-1.06-.13-2.25-.2-1.18-.06-2.44-.11-1.27-.05-2.46-.2-1.05.58-1.7 1.37t-.65 1.84q0 .69.34 1.29.35.6 1.1 1.03t1.95.68q1.2.24 2.93.24 1.76 0 3.04-.27 1.27-.27 2.1-.74t1.21-1.12q.39-.65.39-1.42m-1.25-26.44h7.52v2.35q0 1.12-1.35 1.37l-2.35.44q.54 1.35.54 2.95 0 1.94-.78 3.51t-2.16 2.66q-1.37 1.1-3.25 1.7-1.87.6-4.04.6-.76 0-1.48-.08-.71-.07-1.4-.2-1.22.74-1.22 1.66 0 .79.72 1.16.73.37 1.93.52t2.73.19 3.13.17q1.61.12 3.14.44t2.73 1.01 1.92 1.87q.73 1.19.73 3.05 0 1.74-.85 3.37-.86 1.63-2.48 2.91-1.62 1.27-3.98 2.05-2.35.78-5.36.78-2.96 0-5.15-.58-2.2-.57-3.65-1.53-1.45-.95-2.17-2.2-.71-1.25-.71-2.6 0-1.84 1.11-3.08 1.11-1.23 3.04-1.97-1.04-.54-1.65-1.43-.62-.89-.62-2.35 0-.58.22-1.21.22-.62.64-1.24.42-.61 1.06-1.16.63-.54 1.5-.98-1.99-1.07-3.12-2.85-1.14-1.79-1.14-4.19 0-1.93.78-3.5t2.17-2.68 3.29-1.7q1.9-.58 4.14-.58 1.68 0 3.16.34 1.48.35 2.71 1.01m11.7-.89h6.32v26.16h-6.32zm7.19-7.63q0 .82-.33 1.53-.33.72-.88 1.25-.55.54-1.29.86-.74.31-1.58.31-.81 0-1.54-.31-.73-.32-1.26-.86-.54-.53-.86-1.25-.32-.71-.32-1.53 0-.84.32-1.58t.86-1.27q.53-.54 1.26-.86t1.54-.32q.84 0 1.58.32t1.29.86q.55.53.88 1.27t.33 1.58m11.02 8.77.43 2.07q.79-.79 1.67-1.47.88-.67 1.86-1.14.98-.48 2.11-.74 1.12-.27 2.44-.27 2.15 0 3.8.73 1.66.72 2.77 2.04 1.11 1.31 1.68 3.13.58 1.83.58 4.02v16.65h-6.3v-16.65q0-2.4-1.1-3.71-1.09-1.32-3.34-1.32-1.63 0-3.06.74t-2.7 2.02v18.92h-6.3v-26.16h3.85q1.23 0 1.61 1.14m44.42 25.43q-3.42 0-5.24-1.93-1.82-1.92-1.82-5.31v-14.62h-2.68q-.51 0-.87-.33t-.36-.99v-2.5l4.21-.69 1.33-7.14q.12-.51.48-.79t.92-.28h3.26v8.24h6.99v4.48h-6.99v14.18q0 1.23.6 1.91.6.69 1.65.69.58 0 .98-.14.39-.14.69-.29.29-.15.52-.29t.46-.14q.28 0 .46.14t.38.42l1.89 3.06q-1.38 1.14-3.16 1.73-1.79.59-3.7.59m21.83-26.98q2.9 0 5.29.94 2.38.95 4.08 2.68 1.69 1.73 2.61 4.23t.92 5.59q0 3.11-.92 5.61t-2.61 4.26q-1.7 1.76-4.08 2.7-2.39.94-5.29.94-2.94 0-5.33-.94-2.4-.94-4.1-2.7-1.69-1.76-2.62-4.26t-.93-5.61q0-3.09.93-5.59t2.62-4.23q1.7-1.73 4.1-2.68 2.39-.94 5.33-.94m0 22.11q3.26 0 4.83-2.2 1.57-2.19 1.57-6.42t-1.57-6.45-4.83-2.22q-3.32 0-4.91 2.23-1.6 2.23-1.6 6.44t1.6 6.41q1.59 2.21 4.91 2.21m37.97-14.87h4.28q1.94 0 3.38-.48 1.44-.49 2.37-1.34.93-.86 1.39-2.03t.46-2.58q0-2.8-1.85-4.3-1.85-1.51-5.65-1.51h-4.38zm12.7 5.71 9.23 13.62h-6.2q-1.76 0-2.55-1.38l-7.75-11.8q-.44-.67-.96-.95t-1.54-.28h-2.93v14.41h-6.86v-36.87h11.24q3.75 0 6.44.77 2.69.78 4.41 2.19 1.72 1.4 2.54 3.35t.82 4.29q0 1.87-.55 3.52-.55 1.66-1.58 3.01-1.04 1.35-2.55 2.37-1.52 1.02-3.46 1.61.66.38 1.23.91.56.52 1.02 1.23m17.21-2.47h11.88q0-1.22-.34-2.31-.35-1.08-1.04-1.9-.68-.81-1.74-1.29-1.06-.47-2.46-.47-2.73 0-4.3 1.56-1.57 1.55-2 4.41m16.06 3.8h-16.19q.15 2.01.71 3.48.57 1.47 1.48 2.42.92.96 2.18 1.43 1.27.47 2.8.47t2.64-.36q1.1-.35 1.93-.79.83-.43 1.46-.79.62-.35 1.21-.35.79 0 1.17.58l1.81 2.3q-1.04 1.22-2.34 2.05-1.31.83-2.72 1.33-1.42.49-2.88.7-1.47.2-2.85.2-2.72 0-5.07-.9-2.35-.91-4.08-2.68t-2.73-4.39q-.99-2.61-.99-6.05 0-2.68.86-5.04.87-2.36 2.49-4.1 1.62-1.75 3.95-2.77 2.34-1.02 5.27-1.02 2.47 0 4.56.79t3.6 2.31q1.5 1.51 2.36 3.72.85 2.21.85 5.04 0 1.42-.3 1.92-.31.5-1.18.5m24.81-13.87h4.98l-10.38 26.16h-5.71l-10.38-26.16h5.2q.71 0 1.19.33.47.33.62.84l5.05 13.97q.41 1.23.71 2.4.31 1.17.54 2.35.25-1.18.56-2.35t.74-2.4l5.15-13.97q.18-.51.64-.84t1.09-.33m8.52 0h6.33v26.16h-6.33zm7.19-7.63q0 .82-.33 1.53-.33.72-.88 1.25-.55.54-1.29.86-.74.31-1.58.31-.81 0-1.54-.31-.73-.32-1.26-.86-.54-.53-.86-1.25-.32-.71-.32-1.53 0-.84.32-1.58t.86-1.27q.53-.54 1.26-.86t1.54-.32q.84 0 1.58.32t1.29.86q.55.53.88 1.27t.33 1.58m14.28 34.2q-3.41 0-5.24-1.93-1.82-1.92-1.82-5.31v-14.62h-2.68q-.51 0-.87-.33-.35-.33-.35-.99v-2.5l4.2-.69 1.33-7.14q.13-.51.49-.79.35-.28.91-.28h3.27v8.24h6.98v4.48h-6.98v14.18q0 1.23.6 1.91.6.69 1.64.69.59 0 .98-.14.4-.14.69-.29t.52-.29.46-.14q.28 0 .46.14t.38.42l1.89 3.06q-1.38 1.14-3.16 1.73-1.79.59-3.7.59"/></svg>