<svg xmlns="http://www.w3.org/2000/svg" width="800" height="600" viewBox="0 0 800 600"><rect width="100%" height="100%" fill="#1e293b"/><path fill="#ffffff" d="m179.455 282.37-1.61 3.05q-.29.5-.61.73-.33.23-.81.23-.5 0-1.09-.37-.59-.38-1.4-.83-.82-.46-1.91-.83t-2.58-.37q-1.35 0-2.35.32-1.01.33-1.7.9-.68.58-1.02 1.38-.33.81-.33 1.77 0 1.22.68 2.04.69.81 1.81 1.39 1.13.57 2.57 1.03t2.95.97q1.52.52 2.96 1.2 1.44.69 2.56 1.73 1.13 1.04 1.82 2.56.68 1.51.68 3.67 0 2.35-.8 4.4-.81 2.05-2.36 3.58-1.54 1.52-3.78 2.4-2.23.87-5.11.87-1.65 0-3.26-.32t-3.09-.92q-1.47-.6-2.77-1.44-1.29-.84-2.3-1.88l1.89-3.09q.24-.34.63-.57.38-.22.81-.22.6 0 1.3.49t1.66 1.09 2.24 1.09 3.08.49q2.76 0 4.28-1.3 1.51-1.31 1.51-3.76 0-1.37-.69-2.23-.68-.87-1.81-1.45-1.13-.59-2.57-1t-2.92-.89q-1.49-.48-2.93-1.15t-2.57-1.75-1.81-2.7q-.69-1.62-.69-4 0-1.89.76-3.69t2.2-3.2q1.44-1.39 3.55-2.23t4.85-.84q3.07 0 5.66.96t4.42 2.69m13.51 31.82q-3.22 0-4.93-1.81-1.72-1.81-1.72-5v-13.75h-2.52q-.48 0-.82-.32-.33-.31-.33-.93v-2.35l3.96-.65 1.25-6.72q.12-.48.45-.75.34-.26.87-.26h3.07v7.75h6.57v4.23h-6.57v13.34q0 1.15.56 1.8.57.65 1.55.65.55 0 .92-.13.38-.14.65-.28.28-.14.49-.28.22-.13.44-.13.26 0 .43.13.17.14.36.4l1.77 2.88q-1.29 1.08-2.97 1.63t-3.48.55m14.33-15.52h11.18q0-1.16-.32-2.18-.33-1.02-.98-1.78-.64-.77-1.64-1.22-1-.44-2.32-.44-2.56 0-4.04 1.46-1.48 1.47-1.88 4.16m15.12 3.57h-15.24q.14 1.9.67 3.28t1.39 2.28 2.05 1.34q1.19.45 2.63.45t2.48-.34q1.05-.34 1.83-.74.78-.41 1.37-.75.58-.33 1.14-.33.74 0 1.1.55l1.7 2.16q-.98 1.15-2.2 1.93-1.23.78-2.56 1.25t-2.71.66-2.68.19q-2.57 0-4.77-.85-2.21-.85-3.84-2.52-1.64-1.67-2.57-4.13-.94-2.46-.94-5.7 0-2.52.82-4.74.81-2.22 2.34-3.86 1.52-1.65 3.72-2.61 2.19-.96 4.95-.96 2.33 0 4.3.75 1.97.74 3.38 2.17 1.42 1.43 2.22 3.5.81 2.08.81 4.74 0 1.35-.29 1.81-.29.47-1.1.47m11.76-5.85v11.04q1 1.22 2.19 1.72 1.19.51 2.58.51 1.35 0 2.43-.51 1.08-.5 1.83-1.53.76-1.03 1.17-2.61.4-1.57.4-3.7 0-2.16-.34-3.66-.35-1.5-1-2.44t-1.57-1.37q-.93-.43-2.1-.43-1.85 0-3.15.78-1.29.78-2.44 2.2m-.8-6.12.48 2.28q1.52-1.71 3.44-2.76 1.92-1.06 4.51-1.06 2.01 0 3.68.84t2.88 2.44q1.21 1.59 1.87 3.93t.66 5.37q0 2.76-.74 5.11t-2.12 4.08-3.34 2.7-4.38.97q-2.06 0-3.53-.64-1.46-.63-2.61-1.76v10.08h-5.93v-32.66h3.62q1.15 0 1.51 1.08m36.58-.94-3.12-.55q.36-2.5 1.39-4.38 1.03-1.89 2.58-3.15t3.55-1.89q2.01-.64 4.31-.64 2.4 0 4.33.69 1.94.68 3.3 1.89 1.37 1.21 2.1 2.85.74 1.63.74 3.52 0 1.66-.38 2.92-.37 1.26-1.06 2.2-.7.93-1.73 1.58t-2.33 1.08q3.12.98 4.66 3 1.53 2.02 1.53 5.06 0 2.6-.96 4.59t-2.59 3.35q-1.63 1.35-3.78 2.05-2.15.69-4.55.69-2.61 0-4.56-.6-1.94-.6-3.38-1.77-1.44-1.18-2.45-2.88-1.01-1.71-1.73-3.94l2.62-1.08q1.03-.43 1.93-.23.9.21 1.31.98.43.84.95 1.65.51.82 1.23 1.45.72.64 1.69 1.04.98.39 2.32.39 1.51 0 2.64-.49t1.88-1.28q.76-.8 1.13-1.77t.37-1.95q0-1.25-.26-2.27t-1.1-1.74-2.42-1.13q-1.57-.41-4.21-.41v-4.22q2.19-.03 3.63-.41t2.29-1.07q.85-.68 1.19-1.64.33-.96.33-2.11 0-2.45-1.37-3.72-1.36-1.28-3.64-1.28-1.06 0-1.95.3t-1.59.84q-.71.54-1.19 1.26t-.72 1.59q-.41 1.1-1.07 1.46t-1.86.17m24.67 21.22q0-.75.28-1.42.27-.67.75-1.15t1.16-.77q.67-.29 1.44-.29.76 0 1.42.29t1.16.77q.49.48.78 1.15.28.67.28 1.42 0 .76-.28 1.42-.29.66-.78 1.14-.5.48-1.16.76t-1.42.28q-.77 0-1.44-.28-.68-.28-1.16-.76t-.75-1.14q-.28-.66-.28-1.42m0-17.12q0-.74.28-1.41.27-.67.75-1.15t1.16-.77q.67-.29 1.44-.29.76 0 1.42.29t1.16.77q.49.48.78 1.15.28.67.28 1.41 0 .77-.28 1.43-.29.66-.78 1.14-.5.48-1.16.76-.66.27-1.42.27-.77 0-1.44-.27-.68-.28-1.16-.76t-.75-1.14q-.28-.66-.28-1.43m45.43-11.06-1.6 3.05q-.29.5-.62.73-.32.23-.8.23-.5 0-1.09-.37-.59-.38-1.41-.83-.81-.46-1.9-.83-1.1-.37-2.58-.37-1.35 0-2.36.32-1 .33-1.69.9-.68.58-1.02 1.38-.33.81-.33 1.77 0 1.22.68 2.04.68.81 1.81 1.39 1.13.57 2.57 1.03t2.95.97q1.51.52 2.95 1.2 1.44.69 2.57 1.73t1.81 2.56q.69 1.51.69 3.67 0 2.35-.81 4.4-.8 2.05-2.35 3.58-1.55 1.52-3.78 2.4-2.23.87-5.11.87-1.66 0-3.26-.32-1.61-.32-3.09-.92-1.47-.6-2.77-1.44t-2.3-1.88l1.89-3.09q.24-.34.63-.57.38-.22.81-.22.6 0 1.3.49.69.49 1.65 1.09t2.25 1.09q1.28.49 3.08.49 2.76 0 4.27-1.3 1.52-1.31 1.52-3.76 0-1.37-.69-2.23-.68-.87-1.81-1.45-1.13-.59-2.57-1t-2.93-.89q-1.48-.48-2.92-1.15t-2.57-1.75-1.81-2.7q-.69-1.62-.69-4 0-1.89.76-3.69.75-1.8 2.19-3.2 1.44-1.39 3.56-2.23 2.11-.84 4.84-.84 3.08 0 5.67.96t4.41 2.69m35.96 6.82h4.51l-7.83 24.62h-4.75q-.81 0-1.13-1.06l-4.41-14.23q-.22-.72-.4-1.43-.18-.7-.3-1.42-.14.72-.32 1.45t-.4 1.45l-4.49 14.18q-.28 1.06-1.27 1.06h-4.56l-7.8-24.62h4.73q.65 0 1.1.31.46.31.6.79l3.53 13.15q.27 1.08.47 2.11.2 1.04.35 2.07.26-1.03.56-2.07.3-1.03.64-2.11l4.08-13.2q.14-.48.56-.79t1.02-.31h2.62q.62 0 1.07.31.44.31.58.79l3.96 13.2q.32 1.08.59 2.13.28 1.04.54 2.07.31-2.04.89-4.2l3.62-13.15q.17-.48.6-.79.44-.31 1.04-.31m20.88 18.26v-4.15q-2.57.12-4.32.44-1.76.33-2.81.83-1.06.5-1.51 1.18-.46.67-.46 1.46 0 1.56.92 2.23.93.67 2.42.67 1.82 0 3.15-.66t2.61-2m-12.53-12.94-1.06-1.89q4.25-3.89 10.23-3.89 2.16 0 3.86.71t2.88 1.97 1.79 3.01.61 3.84v15.55h-2.69q-.84 0-1.29-.25-.46-.25-.72-1.02l-.53-1.78q-.94.84-1.83 1.48-.88.63-1.84 1.07-.96.43-2.06.66-1.09.22-2.41.22-1.56 0-2.88-.42t-2.28-1.26-1.49-2.08q-.52-1.25-.52-2.91 0-.93.31-1.86.31-.92 1.02-1.76t1.83-1.59q1.13-.74 2.78-1.29 1.64-.55 3.82-.9 2.19-.35 5-.42v-1.44q0-2.47-1.06-3.66t-3.05-1.19q-1.44 0-2.39.34-.94.33-1.66.75t-1.31.76q-.59.33-1.31.33-.62 0-1.06-.32-.43-.32-.69-.76m29.81 1.88v11.04q1 1.22 2.19 1.72 1.19.51 2.58.51 1.35 0 2.43-.51 1.08-.5 1.83-1.53.76-1.03 1.17-2.61.4-1.57.4-3.7 0-2.16-.34-3.66-.35-1.5-1-2.44t-1.57-1.37q-.93-.43-2.1-.43-1.85 0-3.15.78-1.29.78-2.44 2.2m-.8-6.12.48 2.28q1.52-1.71 3.44-2.76 1.92-1.06 4.51-1.06 2.01 0 3.68.84t2.88 2.44q1.21 1.59 1.87 3.93t.66 5.37q0 2.76-.74 5.11t-2.12 4.08-3.34 2.7-4.38.97q-2.06 0-3.53-.64-1.46-.63-2.61-1.76v10.08h-5.93v-32.66h3.62q1.15 0 1.51 1.08m67.49-11.16h4.87v34.7h-5.68v-22.42q0-1.34.14-2.9l-10.49 19.7q-.74 1.42-2.28 1.42h-.91q-1.54 0-2.28-1.42l-10.61-19.77q.07.79.12 1.56t.05 1.41v22.42h-5.69v-34.7h4.87q.44 0 .75.02t.56.12.46.31q.2.22.39.58l10.4 19.27q.4.77.75 1.58.35.82.69 1.68.33-.88.69-1.71t.77-1.6l10.25-19.22q.19-.36.41-.58.21-.21.46-.31.26-.1.57-.12t.74-.02m24.67 28.34v-4.15q-2.56.12-4.32.44-1.75.33-2.8.83-1.06.5-1.52 1.18-.45.67-.45 1.46 0 1.56.92 2.23.93.67 2.41.67 1.83 0 3.16-.66t2.6-2m-12.52-12.94-1.06-1.89q4.25-3.89 10.22-3.89 2.16 0 3.87.71 1.7.71 2.88 1.97 1.17 1.26 1.79 3.01.61 1.75.61 3.84v15.55h-2.69q-.84 0-1.3-.25-.45-.25-.72-1.02l-.52-1.78q-.94.84-1.83 1.48-.89.63-1.85 1.07-.96.43-2.05.66-1.09.22-2.41.22-1.56 0-2.88-.42t-2.28-1.26-1.49-2.08q-.53-1.25-.53-2.91 0-.93.32-1.86.31-.92 1.02-1.76.7-.84 1.83-1.59 1.13-.74 2.77-1.29 1.65-.55 3.83-.9 2.19-.35 4.99-.42v-1.44q0-2.47-1.05-3.66-1.06-1.19-3.05-1.19-1.44 0-2.39.34-.95.33-1.67.75l-1.3.76q-.59.33-1.31.33-.63 0-1.06-.32t-.69-.76m32.08 19.68q-3.21 0-4.93-1.81-1.71-1.81-1.71-5v-13.75h-2.52q-.48 0-.82-.32-.34-.31-.34-.93v-2.35l3.96-.65 1.25-6.72q.12-.48.46-.75.33-.26.86-.26h3.07v7.75h6.58v4.23h-6.58v13.34q0 1.15.57 1.8.56.65 1.55.65.55 0 .92-.13.37-.14.65-.28.27-.14.49-.28.22-.13.43-.13.27 0 .43.13.17.14.36.4l1.78 2.88q-1.3 1.08-2.98 1.63t-3.48.55m14.33-15.52h11.19q0-1.16-.33-2.18-.32-1.02-.97-1.78-.65-.77-1.64-1.22-1-.44-2.32-.44-2.57 0-4.04 1.46-1.48 1.47-1.89 4.16m15.12 3.57h-15.24q.15 1.9.67 3.28.53 1.38 1.4 2.28.86.9 2.05 1.34 1.19.45 2.63.45t2.48-.34 1.82-.74q.78-.41 1.37-.75.59-.33 1.14-.33.75 0 1.11.55l1.7 2.16q-.98 1.15-2.21 1.93-1.22.78-2.55 1.25-1.34.47-2.72.66t-2.67.19q-2.57 0-4.78-.85t-3.84-2.52-2.57-4.13q-.93-2.46-.93-5.7 0-2.52.81-4.74.82-2.22 2.34-3.86 1.53-1.65 3.72-2.61 2.2-.96 4.96-.96 2.33 0 4.3.75 1.96.74 3.38 2.17t2.22 3.5q.8 2.08.8 4.74 0 1.35-.28 1.81-.29.47-1.11.47m11.07-11.57.36 2.79q1.15-2.21 2.73-3.47 1.59-1.26 3.75-1.26 1.7 0 2.73.74l-.38 4.44q-.12.44-.35.62t-.61.18q-.36 0-1.07-.12t-1.38-.12q-.98 0-1.75.28-.77.29-1.38.83t-1.08 1.31-.88 1.75v15.17h-5.93v-24.62h3.48q.92 0 1.28.32t.48 1.16m12.86-1.48h5.95v24.62h-5.95zm6.77-7.18q0 .77-.31 1.44-.32.67-.83 1.18-.52.5-1.21.8-.7.3-1.49.3-.77 0-1.45-.3-.69-.3-1.19-.8-.51-.51-.81-1.18t-.3-1.44q0-.79.3-1.49.3-.69.81-1.2.5-.5 1.19-.8.68-.3 1.45-.3.79 0 1.49.3.69.3 1.21.8.51.51.83 1.2.31.7.31 1.49m18.24 25.44v-4.15q-2.57.12-4.32.44-1.75.33-2.81.83t-1.51 1.18q-.46.67-.46 1.46 0 1.56.93 2.23.92.67 2.41.67 1.82 0 3.15-.66 1.34-.66 2.61-2m-12.53-12.94-1.06-1.89q4.25-3.89 10.23-3.89 2.16 0 3.86.71 1.71.71 2.88 1.97 1.18 1.26 1.79 3.01t.61 3.84v15.55h-2.69q-.84 0-1.29-.25-.46-.25-.72-1.02l-.53-1.78q-.94.84-1.82 1.48-.89.63-1.85 1.07-.96.43-2.05.66-1.1.22-2.42.22-1.56 0-2.88-.42t-2.28-1.26-1.48-2.08q-.53-1.25-.53-2.91 0-.93.31-1.86.31-.92 1.02-1.76t1.84-1.59q1.12-.74 2.77-1.29 1.64-.55 3.83-.9 2.18-.35 4.99-.42v-1.44q0-2.47-1.06-3.66-1.05-1.19-3.05-1.19-1.44 0-2.38.34-.95.33-1.67.75t-1.31.76q-.59.33-1.31.33-.62 0-1.05-.32-.44-.32-.7-.76m23.95-16.36h5.93v35.66h-5.93zm28.23 13.7-1.35 2.14q-.24.38-.5.54-.27.15-.67.15-.44 0-.93-.24t-1.14-.54-1.47-.54q-.83-.24-1.96-.24-1.75 0-2.75.75-.99.74-.99 1.94 0 .79.51 1.33.52.54 1.37.95t1.93.73q1.08.33 2.2.71 1.11.38 2.19.88 1.08.49 1.94 1.24.85.76 1.36 1.82.52 1.05.52 2.54 0 1.78-.64 3.28-.63 1.5-1.88 2.59t-3.08 1.7q-1.84.61-4.24.61-1.27 0-2.48-.22-1.22-.23-2.33-.64-1.12-.41-2.07-.96-.94-.55-1.66-1.2l1.36-2.26q.27-.4.63-.62t.91-.22 1.04.32q.5.31 1.14.67.65.36 1.53.67.87.31 2.22.31 1.05 0 1.81-.25t1.25-.66.72-.95.23-1.11q0-.87-.52-1.42t-1.37-.96-1.94-.73q-1.09-.33-2.23-.71t-2.24-.9q-1.09-.52-1.94-1.31t-1.37-1.94q-.51-1.15-.51-2.79 0-1.51.6-2.88.6-1.36 1.76-2.38t2.9-1.64q1.74-.61 4.02-.61 2.55 0 4.64.84 2.08.84 3.48 2.21"/></svg>