<svg xmlns="http://www.w3.org/2000/svg" width="800" height="600" viewBox="0 0 800 600"><rect width="100%" height="100%" fill="#1e293b"/><path fill="#ffffff" d="m180.57 282.01-1.64 3.11q-.3.51-.63.74-.33.24-.82.24-.51 0-1.11-.38t-1.44-.85q-.83-.46-1.94-.84-1.12-.38-2.64-.38-1.37 0-2.4.33t-1.73.92q-.69.58-1.04 1.4-.34.83-.34 1.81 0 1.24.7 2.08.7.83 1.85 1.42t2.62 1.05q1.47.47 3.01.99 1.55.53 3.02 1.23t2.62 1.76q1.15 1.07 1.85 2.61.69 1.55.69 3.75 0 2.4-.82 4.5-.82 2.09-2.4 3.65-1.58 1.55-3.86 2.45-2.27.89-5.21.89-1.69 0-3.34-.33-1.64-.33-3.14-.94-1.51-.61-2.83-1.47-1.33-.86-2.36-1.91l1.94-3.16q.24-.35.64-.58.39-.23.83-.23.61 0 1.32.5t1.69 1.11q.98.62 2.29 1.12t3.15.5q2.82 0 4.36-1.33 1.55-1.34 1.55-3.84 0-1.39-.7-2.28-.7-.88-1.85-1.48t-2.62-1.02q-1.47-.41-2.99-.9t-2.99-1.18q-1.47-.68-2.62-1.79-1.15-1.1-1.85-2.75-.7-1.66-.7-4.08 0-1.94.77-3.77.77-1.84 2.24-3.26t3.63-2.28q2.15-.86 4.95-.86 3.13 0 5.78.98t4.51 2.75m13.79 32.48q-3.28 0-5.03-1.85-1.76-1.85-1.76-5.11V293.5H185q-.49 0-.83-.32t-.34-.96v-2.4l4.04-.66 1.27-6.86q.13-.49.47-.76t.88-.27h3.14v7.91h6.71v4.32h-6.71v13.62q0 1.17.57 1.83.58.67 1.58.67.57 0 .95-.14.38-.13.66-.28t.5-.28q.22-.14.44-.14.27 0 .44.14.17.13.37.4l1.81 2.94q-1.32 1.11-3.04 1.67-1.71.56-3.55.56m14.63-15.85h11.42q0-1.18-.34-2.22-.33-1.04-.99-1.82-.66-.79-1.68-1.24-1.01-.45-2.36-.45-2.62 0-4.13 1.49-1.51 1.5-1.92 4.24m15.43 3.65h-15.55q.14 1.94.68 3.35.54 1.4 1.42 2.32t2.1 1.37q1.21.46 2.68.46t2.54-.35q1.06-.34 1.86-.75.79-.42 1.39-.76.6-.35 1.17-.35.76 0 1.13.57l1.73 2.2q-1 1.18-2.25 1.97-1.25.8-2.61 1.28t-2.77.67q-1.41.2-2.73.2-2.62 0-4.87-.87-2.26-.87-3.92-2.57-1.67-1.71-2.63-4.22-.95-2.51-.95-5.82 0-2.57.83-4.84.83-2.26 2.39-3.94t3.8-2.66 5.06-.98q2.37 0 4.38.76t3.46 2.22q1.44 1.46 2.26 3.57.82 2.12.82 4.84 0 1.38-.29 1.85-.29.48-1.13.48m12.01-5.98v11.27q1.03 1.25 2.24 1.77 1.21.51 2.63.51 1.38 0 2.48-.51 1.1-.52 1.87-1.57t1.19-2.66q.42-1.6.42-3.78 0-2.21-.36-3.74-.35-1.53-1.02-2.49-.66-.95-1.6-1.39t-2.14-.44q-1.89 0-3.21.79-1.33.8-2.5 2.24m-.81-6.24.49 2.32q1.54-1.74 3.5-2.81 1.96-1.08 4.61-1.08 2.06 0 3.76.85 1.7.86 2.94 2.49t1.91 4.02.67 5.48q0 2.81-.76 5.21-.75 2.4-2.16 4.17-1.41 1.76-3.41 2.76-2 .99-4.47.99-2.11 0-3.6-.65-1.5-.65-2.67-1.8v10.29h-6.05v-33.35h3.7q1.17 0 1.54 1.11m46.45 18.4h9.09q.98 0 1.56.55.57.55.57 1.45v3.63h-24.3v-2.01q0-.61.26-1.29.25-.67.82-1.21l10.75-10.78q1.35-1.37 2.42-2.62 1.06-1.25 1.77-2.47.71-1.23 1.09-2.49t.38-2.66q0-1.27-.37-2.24-.36-.97-1.04-1.63-.67-.66-1.61-.99-.95-.33-2.12-.33-1.08 0-2 .3-.92.31-1.63.86t-1.2 1.29q-.49.73-.74 1.61-.41 1.13-1.07 1.5t-1.91.17l-3.19-.56q.37-2.55 1.42-4.47 1.06-1.93 2.64-3.21 1.58-1.29 3.62-1.94 2.05-.65 4.4-.65 2.45 0 4.48.72 2.04.73 3.48 2.05 1.45 1.32 2.26 3.18.8 1.87.8 4.14 0 1.96-.57 3.63-.58 1.67-1.54 3.19-.97 1.52-2.27 2.94t-2.72 2.89l-7.99 8.16q1.15-.35 2.29-.53t2.17-.18m16.07 2.3q0-.76.29-1.45.28-.68.77-1.17t1.17-.79q.69-.29 1.47-.29.79 0 1.46.29.67.3 1.18.79.5.49.79 1.17.3.69.3 1.45 0 .78-.3 1.46-.29.67-.79 1.16-.51.49-1.18.77t-1.46.28q-.78 0-1.47-.28-.68-.28-1.17-.77t-.77-1.16q-.29-.68-.29-1.46m0-17.47q0-.76.29-1.45.28-.68.77-1.17t1.17-.79q.69-.29 1.47-.29.79 0 1.46.29.67.3 1.18.79.5.49.79 1.17.3.69.3 1.45 0 .78-.3 1.46-.29.67-.79 1.16-.51.49-1.18.77t-1.46.28q-.78 0-1.47-.28-.68-.28-1.17-.77t-.77-1.16q-.29-.68-.29-1.46m33.32 7.42h11.27l-4.31-11.78q-.32-.79-.66-1.86-.34-1.08-.69-2.33-.31 1.25-.66 2.34-.34 1.09-.66 1.9zm8.99-22.05 13.92 35.43h-5.1q-.85 0-1.39-.43t-.81-1.06l-2.65-7.23h-14.67l-2.65 7.23q-.19.56-.76 1.02-.56.47-1.39.47h-5.15l13.94-35.43zm21.88 11.4.42 1.98q.76-.76 1.6-1.41.85-.65 1.79-1.1.95-.45 2.02-.71 1.08-.26 2.36-.26 2.05 0 3.65.7 1.59.7 2.66 1.96 1.06 1.26 1.61 3.01t.55 3.86v16h-6.05v-16q0-2.3-1.05-3.56-1.06-1.26-3.21-1.26-1.57 0-2.94.71t-2.6 1.93v18.18h-6.05v-25.14h3.7q1.18 0 1.54 1.11m35.68 17.54v-4.24q-2.63.12-4.41.45-1.79.33-2.87.85-1.08.51-1.54 1.2-.47.68-.47 1.49 0 1.59.94 2.28.95.69 2.47.69 1.86 0 3.22-.68 1.36-.67 2.66-2.04m-12.79-13.21-1.08-1.93q4.33-3.97 10.44-3.97 2.2 0 3.94.72t2.94 2.01 1.83 3.07q.62 1.79.62 3.92v15.88h-2.74q-.86 0-1.33-.26-.46-.25-.73-1.04l-.54-1.81q-.96.86-1.86 1.51-.91.64-1.89 1.09-.98.44-2.09.67-1.12.23-2.47.23-1.59 0-2.94-.43-1.34-.43-2.32-1.28-.98-.86-1.52-2.13-.54-1.28-.54-2.97 0-.95.32-1.9.31-.94 1.04-1.8.72-.86 1.87-1.62t2.83-1.32 3.91-.92q2.23-.35 5.1-.43v-1.47q0-2.52-1.08-3.73t-3.11-1.21q-1.47 0-2.44.34t-1.7.77q-.74.43-1.34.77t-1.34.34q-.63 0-1.07-.33t-.71-.77m24.45-16.71h6.05v36.41h-6.05zm30.08 11.27h4.85l-13.69 32.05q-.27.64-.7.97t-1.31.33h-4.51l4.71-10.1-10.17-23.25h5.31q.72 0 1.12.35.4.34.6.78l5.34 13.03q.27.67.45 1.33.19.66.36 1.34l.44-1.36q.22-.67.49-1.33l5.05-13.01q.19-.49.65-.81.45-.32 1.01-.32m25.92 0v2.5q0 .64-.22 1.25t-.58 1.01l-11.94 15.72h12.38v4.66H445.9v-2.52q0-.42.2-1 .19-.57.59-1.09l12.05-15.9h-12.13v-4.63zm9.24 9.68h11.42q0-1.18-.33-2.22t-1-1.82q-.66-.79-1.67-1.24-1.02-.45-2.37-.45-2.62 0-4.13 1.49-1.5 1.5-1.92 4.24m15.44 3.65h-15.56q.15 1.94.68 3.35.54 1.4 1.43 2.32.88.92 2.09 1.37 1.21.46 2.68.46t2.54-.35q1.06-.34 1.86-.75.8-.42 1.4-.76.6-.35 1.16-.35.76 0 1.13.57l1.74 2.2q-1.01 1.18-2.26 1.97-1.25.8-2.61 1.28t-2.76.67q-1.41.2-2.74.2-2.62 0-4.87-.87-2.26-.87-3.92-2.57-1.67-1.71-2.62-4.22-.96-2.51-.96-5.82 0-2.57.83-4.84.84-2.26 2.39-3.94 1.56-1.68 3.8-2.66t5.06-.98q2.38 0 4.39.76 2 .76 3.45 2.22t2.27 3.57q.82 2.12.82 4.84 0 1.38-.3 1.85-.29.48-1.12.48m52.25-23.62h4.98v35.43h-5.81v-22.88q0-1.38.15-2.97l-10.71 20.12q-.76 1.44-2.33 1.44h-.93q-1.56 0-2.32-1.44l-10.83-20.19q.07.81.12 1.59.05.79.05 1.45v22.88h-5.81v-35.43h4.98q.44 0 .75.03.32.02.58.12t.47.32q.2.22.4.59l10.61 19.67q.42.78.77 1.62.36.83.7 1.71.34-.9.71-1.75.37-.84.78-1.63l10.46-19.62q.2-.37.42-.59t.48-.32.58-.12q.31-.03.75-.03m23.03 9.9q2.8 0 5.09.91 2.29.9 3.92 2.57t2.51 4.07.88 5.36q0 2.99-.88 5.39t-2.51 4.09-3.92 2.6-5.09.91q-2.81 0-5.12-.91-2.3-.91-3.93-2.6t-2.52-4.09q-.9-2.4-.9-5.39 0-2.96.9-5.36.89-2.4 2.52-4.07t3.93-2.57q2.31-.91 5.12-.91m0 21.24q3.14 0 4.65-2.1 1.5-2.11 1.5-6.18t-1.5-6.2q-1.51-2.13-4.65-2.13-3.18 0-4.71 2.15-1.53 2.14-1.53 6.18t1.53 6.16 4.71 2.12m32.81-3.16v-11.27q-1.03-1.25-2.24-1.76-1.21-.52-2.61-.52-1.37 0-2.48.52-1.1.51-1.88 1.55-.79 1.04-1.2 2.65-.42 1.6-.42 3.78 0 2.21.36 3.74.35 1.53 1.01 2.5t1.62 1.4 2.13.43q1.89 0 3.21-.79 1.32-.78 2.5-2.23m0-28.96h6.05v36.41h-3.7q-1.2 0-1.52-1.1l-.51-2.43q-1.52 1.74-3.49 2.82-1.98 1.08-4.6 1.08-2.05 0-3.77-.86-1.71-.86-2.95-2.49t-1.91-4.03q-.68-2.4-.68-5.49 0-2.79.76-5.19t2.18-4.16q1.42-1.77 3.41-2.76 1.98-.99 4.46-.99 2.1 0 3.6.66 1.49.66 2.67 1.79zm16.81 20.95h11.41q0-1.18-.33-2.22t-.99-1.82q-.66-.79-1.68-1.24-1.01-.45-2.36-.45-2.62 0-4.13 1.49-1.51 1.5-1.92 4.24m15.43 3.65h-15.56q.15 1.94.69 3.35.54 1.4 1.42 2.32t2.1 1.37q1.21.46 2.68.46t2.53-.35q1.07-.34 1.87-.75.79-.42 1.39-.76.6-.35 1.17-.35.76 0 1.12.57l1.74 2.2q-1 1.18-2.25 1.97-1.25.8-2.61 1.28t-2.77.67q-1.41.2-2.73.2-2.62 0-4.88-.87-2.25-.87-3.92-2.57-1.66-1.71-2.62-4.22-.95-2.51-.95-5.82 0-2.57.83-4.84.83-2.26 2.39-3.94 1.55-1.68 3.8-2.66 2.24-.98 5.06-.98 2.37 0 4.38.76t3.46 2.22q1.44 1.46 2.26 3.57.82 2.12.82 4.84 0 1.38-.29 1.85-.3.48-1.13.48m6.03-24.6h6.05v36.41h-6.05z"/></svg>