<svg xmlns="http://www.w3.org/2000/svg" fill="none" height="438" viewBox="0 0 850 438" width="850"><path d="m187.331 218.069h52.582l34.947 140.418h.611l45.77-140.418h44.852l45.464 144.121h.611l36.799-144.121h48.861l-64.016 218.977h-42.983l-48.25-151.545h-.611l-48.25 151.545h-41.437z" fill="#717272"></path><path d="m540.523 218.069h39.891l95.26 218.977h-54.434l-18.876-46.398h-85.049l-18.246 46.398h-53.194zm18.552 63.729-26.605 68.042h53.499l-26.912-68.042z" fill="#717272"></path><path d="m685.256 218.069h81.345c45.464 0 83.198 14.544 83.198 66.497s-34.948 67.108-81.04 67.108h-35.253v85.372h-48.25zm48.25 92.797h32.161c17.006 0 34.012-5.878 34.012-26.282 0-22.579-22.885-25.671-41.437-25.671h-24.736z" fill="#717272"></path><g clip-rule="evenodd" fill="#60bd6b" fill-rule="evenodd"><path d="m170.954 169.73c-.215 7.641 11.667 13.932 11.038 23.568-41.077-9.905-57.957-45.589-64.501-89.992 34.57 14.345 78.236 38.344 71.153 83.359-7.533-9.061-13.285-14.526-17.69-16.935z"></path><path d="m222.602 147.599c-5.914 4.836-2.84 17.959-10.534 23.802-19.487-37.5-3.65-73.6337 25.563-107.736 11.882 35.4865 22.417 84.186-16.197 108.401 1.887-11.631 2.247-19.559 1.168-24.467z"></path><path d="m265.01 191.751c-7.407 1.313-11.02 14.04-20.422 15.389 1.222-41.527 32.107-64.951 73.49-80.249-6.796 36.133-21.051 82.999-65.76 85.318 7.191-9.096 11.29-15.73 12.71-20.458z"></path><path d="m147.242 219.636c4.441 6.022 22.22 5.789 27.613 13.59-37.734 17.384-72.447.108-104.5538-30.147 35.4148-9.977 83.7188-18.013 105.6688 21.015-11.344-2.409-23.856-5.303-28.71-4.44z"></path><path d="m143.646 277.665c7.389 1.222 19.972-11.362 29.266-9.528-14.92 38.758-51.827 50.623-95.9783 51.324 18.4263-31.837 47.4413-71.296 90.3703-58.641-9.816 6.203-20.8 12.854-23.676 16.845z"></path><path d="m282.841 104.402c-5.195 1.744-7.586 11.919-14.237 13.896-3.56-30.147 16.305-50.4249 44.6-65.921-1.042 26.9114-6.363 62.326-38.47 68.78 4.242-7.353 7.604-13.159 8.107-16.755z"></path><path d="m347.306 180.518c-5.375-1.115-12.565 6.472-19.307 4.8 12.189-27.811 39.567-35.235 71.818-34.3-14.525 22.669-37.014 50.551-67.971 39.855 7.371-4.189 13.213-7.497 15.46-10.355z"></path><path d="m329.617 103.305c-4.332 1.097-4.44 5.447-9.977 6.634-1.025-24.7183 16.395-39.9628 40.358-50.8208-2.535 21.806-9.042 50.2638-35.54 53.5168 3.901-5.716 4.53-6.453 5.159-9.33z"></path><path d="m349.824 134.011c-4.494-1.114-6.687 2.805-12.332 1.241 11.074-23.1 34.372-28.601 61.535-26.894-12.889 18.696-32.664 41.545-58.443 31.676 6.346-3.326 7.263-3.686 9.24-6.005z"></path><path d="m267.867 57.2668c-3.757 2.373-2.534 6.4537-7.388 9.2581-8.449-22.9565 3.325-42.5693 22.597-60.0249 4.206 21.2847 6.669 50.0298-17.276 61.1215 1.941-6.5615 2.301-7.4244 2.049-10.3547z"></path><path d="m213.595 53.9774c-2.822 3.3976-.413 6.9211-4.152 11.0738-15.137-19.2533-9.978-41.5267 2.984-64.069755 10.588 18.947655 21.77 45.535555 2.427 63.476555-.18-6.8493-.072-7.7841-1.241-10.4806z"></path><path d="m183.664 93.1135c-2.031 5.0694 4.89 15.7475 2.085 22.0215-25.023-16.7903-27.432-44.8163-20.817-76.1321 19.577 18.1747 42.767 45.0502 26.912 73.3821-2.823-7.964-5.807-16.557-8.18-19.2715z"></path><path d="m133.634 73.9329c-1.097 4.3504 5.626 12.2423 4.026 17.6533-21.824-10.7502-26.767-33.2753-24.826-59.4856 17.618 12.5119 39.064 31.6933 29.411 56.5374-3.092-6.1301-6.436-12.7816-8.611-14.7051z"></path><path d="m90.741 109.022c.5932 4.458 6.5616 5.393 7.0649 11.002-24.2688-1.978-37.1403-21.105-44.9603-46.2008 20.9971 5.1594 47.9984 15.1007 48.1604 41.7608-5.1236-4.549-7.4966-5.555-10.247-6.58z"></path><path d="m107.172 164.607c1.636 5.303 5.573 4.548 7.353 11.326-30.0575 2.66-49.7422-18.013-64.5372-47.01 26.7137 1.923 61.7152 8.413 67.5032 40.933-7.209-4.476-6.759-4.584-10.319-5.231z"></path><path d="m63.3445 180.893c2.6247 3.811 5.5908 2.175 8.7009 7.137-23.7296 9.959-44.7266-1.42-63.78216-20.746 22.12956-5.429 52.13306-9.366 64.71696 15.119-6.9571-1.69-6.5976-1.906-9.6357-1.492z"></path><path d="m56.6564 221.144c3.6493 2.84 6.0043.377 10.4806 4.134-19.5769 16.719-43.0368 12.279-67.0898809-.305 19.4330809-11.901 46.8118809-24.808 66.2628809-5.339-7.1368.521-6.8671.197-9.6536 1.51z"></path><path d="m84.1261 254.78c4.674 2.966 15.0827-.953 20.8349 3.02-21.3382 22.093-49.7418 19.487-79.7812 7.262 21.7161-16.341 52.7982-34.803 78.1452-13.896-8.4127 1.438-16.0709 1.744-19.2169 3.632z"></path><path d="m67.2809 292.53c4.3864 1.42 6.8852-1.006 12.3322 1.007-12.6378 22.255-36.1156 25.977-62.8653 22.309 14.1838-17.635 35.4145-38.956 60.2047-27.307-6.4897 2.895-7.4784 1.798-9.6536 3.991z"></path><path d="m91.0464 336.701c4.4583 1.096 4.674-1.726 10.2466-.09-11.0555 23.064-34.2278 28.403-61.1752 26.605 12.9254-18.588 32.6281-41.328 58.1733-31.441-6.2739 3.362-5.2133 2.553-7.2267 4.908z"></path></g></svg>