<svg xmlns="http://www.w3.org/2000/svg" width="200" height="80" viewBox="0 0 200 80"><rect width="100%" height="100%" fill="none"/><path fill="#334155" d="M47.12 39.21v1.75h-4.77v4.73h-2.28V34.31h7.84v1.76h-5.56v3.14zm7.17 6.48-.21-1.22q-.39.67-.99 1.02-.6.36-1.38.36-1.34 0-2.09-.85-.75-.86-.75-2.66v-5.1h2.27v5.11q0 .93.31 1.33t.92.4q.55 0 .94-.18.39-.17.64-.51v-6.15h2.28v8.45zm4.09-10.52h2.28v2.07h1.42v1.6h-1.42v4.3q0 .5.21.71.2.21.54.21.18 0 .31-.02t.3-.07l.2 1.65q-.35.12-.67.18-.33.05-.72.05-1.18 0-1.81-.64-.64-.65-.64-2.06v-4.31h-1.23v-1.6h1.23zM68.9 45.69l-.2-1.22q-.39.67-.99 1.02-.6.36-1.38.36-1.34 0-2.09-.85-.76-.86-.76-2.66v-5.1h2.28v5.11q0 .93.31 1.33t.92.4q.55 0 .94-.18.39-.17.64-.51v-6.15h2.28v8.45zm8.36-8.52-.25 2.03-.83-.03q-.51 0-.84.22-.33.21-.5.59v5.71h-2.27v-8.45h2.12l.1 1.25q.29-.67.77-1.04.47-.37 1.09-.37.17 0 .31.03zm4.65 8.68q-1.83 0-2.92-1.17t-1.09-2.97v-.32q0-1.88 1.03-3.1 1.04-1.22 2.78-1.21 1.71 0 2.66 1.03.94 1.03.94 2.79v1.24h-5.05l-.01.05q.06.84.56 1.37.49.54 1.34.54.76 0 1.26-.15t1.1-.48l.61 1.41q-.51.42-1.35.7-.83.27-1.86.27m-.2-7.01q-.63 0-1 .48-.37.49-.45 1.28l.02.04h2.8v-.21q0-.72-.34-1.16-.34-.43-1.03-.43m15.48 2.98h2.21l.01.05q.03 1.84-1.12 2.91t-3.2 1.07-3.33-1.32-1.28-3.39v-2.26q0-2.07 1.25-3.4t3.25-1.33q2.1 0 3.29 1.08t1.16 2.95l-.02.05h-2.22q0-1.13-.54-1.72-.53-.6-1.67-.6-1.03 0-1.63.83t-.6 2.12v2.28q0 1.3.63 2.13t1.71.83q1.07 0 1.58-.57.52-.57.52-1.71m3.31-.27v-.16q0-1.9 1.05-3.1 1.06-1.21 2.93-1.21t2.93 1.2q1.07 1.21 1.07 3.11v.16q0 1.91-1.06 3.1-1.06 1.2-2.93 1.2t-2.93-1.2q-1.06-1.19-1.06-3.1m2.27-.16v.16q0 1.16.41 1.85.4.7 1.31.7.88 0 1.29-.7t.41-1.85v-.16q0-1.13-.41-1.84t-1.3-.71-1.3.71q-.41.72-.41 1.84m7.07-4.15h2.13l.1 1.21q.42-.65 1.04-1.01t1.38-.36q1.28 0 2 .81.72.8.72 2.52v5.28h-2.29v-5.27q0-.86-.34-1.21-.35-.36-1.04-.36-.46 0-.81.19-.36.18-.61.52v6.13h-2.28zm13.64 6.12q0-.37-.36-.65-.36-.27-1.35-.48-1.5-.31-2.26-.9-.76-.6-.76-1.63 0-1.1.92-1.86.91-.76 2.45-.76 1.62 0 2.58.76.95.76.92 1.91l-.02.05h-2.2q0-.51-.33-.83-.32-.32-.95-.32-.55 0-.87.27-.31.27-.31.68 0 .39.33.64t1.35.44q1.56.31 2.32.92.75.61.75 1.67 0 1.14-.97 1.86-.98.72-2.58.72-1.69 0-2.67-.85-.98-.86-.93-1.95l.01-.05h2.09q.02.68.44.99.43.3 1.11.3.63 0 .96-.25t.33-.68m4.11-8.19h2.28v2.07h1.43v1.6h-1.43v4.3q0 .5.21.71.2.21.54.21.18 0 .31-.02t.3-.07l.2 1.65q-.35.12-.67.18-.33.05-.71.05-1.18 0-1.82-.64-.64-.65-.64-2.06v-4.31h-1.23v-1.6h1.23zm9.85 2-.25 2.03-.83-.03q-.51 0-.84.22-.33.21-.5.59v5.71h-2.27v-8.45h2.12l.1 1.25q.29-.67.77-1.04.47-.37 1.09-.37.17 0 .31.03zm6.28 8.52-.21-1.22q-.39.67-.99 1.02-.6.36-1.38.36-1.34 0-2.09-.85-.75-.86-.75-2.66v-5.1h2.27v5.11q0 .93.31 1.33t.92.4q.55 0 .94-.18.39-.17.64-.51v-6.15h2.28v8.45zm7.21-1.59q.61 0 .97-.35.37-.36.37-.95h2.07l.03.05q.03 1.28-.97 2.14t-2.47.86q-1.89 0-2.92-1.19-1.02-1.2-1.02-3.07v-.24q0-1.86 1.02-3.07 1.02-1.2 2.91-1.2 1.56 0 2.52.89t.93 2.34l-.02.05h-2.08q0-.65-.36-1.09-.36-.43-.99-.43-.91 0-1.28.7t-.37 1.81v.24q0 1.13.37 1.82t1.29.69m5.16-8.93h2.28v2.07h1.43v1.6h-1.43v4.3q0 .5.21.71.2.21.54.21.18 0 .31-.02t.3-.07l.2 1.65q-.35.12-.67.18-.33.05-.71.05-1.18 0-1.82-.64-.64-.65-.64-2.06v-4.31h-1.23v-1.6h1.23z"/></svg>