<svg xmlns="http://www.w3.org/2000/svg" width="200" height="80" viewBox="0 0 200 80"><rect width="100%" height="100%" fill="none"/><path fill="#334155" d="m47.872 47.51-.97-3.07h-4.99l-.97 3.07h-2.88l4.89-14.22h2.92l4.88 14.22zm-3.49-10.89-1.77 5.59h3.59l-1.76-5.59zm13.32.25-.3 2.52-1.05-.02q-.63 0-1.04.26t-.63.74v7.14h-2.84V36.94h2.65l.12 1.57q.37-.83.97-1.3.59-.46 1.36-.46.21 0 .39.03.18.04.37.09m5.58 8.66q.76 0 1.22-.45.46-.44.46-1.18h2.58l.03.06q.04 1.6-1.2 2.68-1.25 1.08-3.09 1.08-2.37 0-3.65-1.5-1.28-1.49-1.28-3.84v-.29q0-2.33 1.28-3.84 1.27-1.5 3.64-1.5 1.95 0 3.15 1.11 1.19 1.11 1.15 2.93l-.02.06h-2.59q0-.82-.45-1.36t-1.24-.54q-1.14 0-1.6.87-.46.88-.46 2.27v.29q0 1.42.46 2.28.46.87 1.61.87m8.7-13.25v6q.5-.72 1.22-1.13.72-.4 1.6-.4 1.65 0 2.59 1.1t.94 3.39v6.27h-2.85v-6.29q0-1.23-.43-1.74-.44-.51-1.3-.51-.58 0-1.03.21-.45.2-.74.59v7.74h-2.85V32.28zm11.5 4.66v10.57h-2.85V36.94zm0-4.66v2.13h-2.85v-2.13zm2.88 2.08h2.85v2.58h1.78v2.01h-1.78v5.38q0 .61.26.88.25.26.68.26.23 0 .39-.03.16-.02.37-.08l.25 2.06q-.43.15-.84.22-.41.08-.89.08-1.48 0-2.27-.82-.8-.81-.8-2.56v-5.39h-1.54v-2.01h1.54zm11.12 13.36q-2.28 0-3.65-1.47-1.36-1.46-1.36-3.72v-.39q0-2.35 1.29-3.88 1.29-1.52 3.47-1.51 2.14 0 3.32 1.29t1.18 3.48v1.56h-6.31l-.02.05q.08 1.05.7 1.72.62.68 1.69.68.94 0 1.57-.19.62-.19 1.37-.6l.77 1.75q-.65.53-1.69.88-1.05.35-2.33.35m-.25-8.77q-.79 0-1.25.6-.46.61-.57 1.59l.03.05h3.5v-.25q0-.91-.42-1.45-.43-.54-1.29-.54m10.6 6.58q.76 0 1.22-.45.46-.44.46-1.18h2.58l.03.06q.04 1.6-1.2 2.68-1.25 1.08-3.09 1.08-2.37 0-3.65-1.5-1.28-1.49-1.28-3.84v-.29q0-2.33 1.28-3.84 1.27-1.5 3.64-1.5 1.95 0 3.15 1.11 1.19 1.11 1.15 2.93l-.02.06h-2.59q0-.82-.45-1.36t-1.24-.54q-1.14 0-1.6.87-.46.88-.46 2.27v.29q0 1.42.46 2.28.46.87 1.61.87m6.45-11.17h2.85v2.58h1.78v2.01h-1.78v5.38q0 .61.26.88.25.26.68.26.23 0 .39-.03.16-.02.37-.08l.25 2.06q-.43.15-.84.22-.41.08-.89.08-1.48 0-2.27-.82-.8-.81-.8-2.56v-5.39h-1.54v-2.01h1.54zm12.16 10.24q0-.47-.45-.81-.46-.34-1.69-.61-1.87-.38-2.83-1.12-.95-.75-.95-2.04 0-1.37 1.15-2.32t3.07-.95q2.02 0 3.22.95 1.19.94 1.15 2.39l-.02.06h-2.76q0-.64-.4-1.04-.41-.4-1.19-.4-.69 0-1.09.34-.39.33-.39.84 0 .49.41.8.42.32 1.69.56 1.95.39 2.9 1.15.94.75.94 2.08 0 1.43-1.22 2.33-1.22.91-3.22.91-2.11 0-3.33-1.07-1.23-1.07-1.17-2.44l.02-.06h2.61q.02.85.55 1.23t1.38.38q.79 0 1.2-.31.42-.31.42-.85m12.84-11.31v14.22h-2.85V33.29zm2.56 3.65h2.66l.12 1.52q.53-.81 1.3-1.26t1.73-.45q1.6 0 2.5 1 .9 1.01.9 3.16v6.6h-2.86v-6.59q0-1.07-.43-1.51t-1.3-.44q-.57 0-1.02.22-.45.23-.75.65v7.67h-2.85zm15.77 8.59q.76 0 1.22-.45.46-.44.46-1.18h2.59l.03.06q.04 1.6-1.21 2.68-1.24 1.08-3.09 1.08-2.36 0-3.64-1.5-1.28-1.49-1.28-3.84v-.29q0-2.33 1.27-3.84 1.28-1.5 3.64-1.5 1.96 0 3.15 1.11 1.2 1.11 1.16 2.93l-.02.06h-2.6q0-.82-.45-1.36t-1.24-.54q-1.13 0-1.59.87-.47.88-.47 2.27v.29q0 1.42.47 2.28.46.87 1.6.87"/></svg>