<svg xmlns="http://www.w3.org/2000/svg" width="200" height="80" viewBox="0 0 200 80"><rect width="100%" height="100%" fill="none"/><path fill="#334155" d="M48.57 39.02v2.31h-6.18v4.26h7.23v2.3H39.4V32.96h10.2v2.31h-7.21v3.75zm7.16 6.79q.8 0 1.28-.47.49-.46.49-1.24h2.71l.03.06q.04 1.68-1.26 2.81-1.31 1.14-3.25 1.14-2.48 0-3.82-1.57-1.35-1.57-1.35-4.03v-.31q0-2.45 1.34-4.03t3.82-1.58q2.05 0 3.31 1.17 1.25 1.17 1.21 3.08l-.02.06H57.5q0-.86-.48-1.43-.47-.57-1.3-.57-1.19 0-1.68.92-.48.92-.48 2.38v.31q0 1.48.48 2.39.49.91 1.69.91m5.75-3.35v-.22q0-2.48 1.39-4.07 1.38-1.58 3.83-1.58 2.46 0 3.86 1.58 1.39 1.58 1.39 4.07v.22q0 2.5-1.39 4.07-1.39 1.58-3.84 1.58-2.46 0-3.85-1.58-1.39-1.57-1.39-4.07m2.99-.22v.22q0 1.51.53 2.43t1.72.92q1.16 0 1.7-.92.54-.93.54-2.43v-.22q0-1.48-.54-2.41-.55-.93-1.72-.93-1.16 0-1.69.94-.54.93-.54 2.4m9.57-9.28h3.91l3.81 11h.06l3.83-11h3.92v14.93h-2.99v-4.45l.28-6.59-.06-.01-4 11.05h-2.01l-3.98-11.01-.06.01.29 6.55v4.45h-3zm27.59 14.93h-3q-.16-.38-.28-.8t-.17-.86q-.46.81-1.21 1.34-.76.54-1.8.54-1.75 0-2.69-.9t-.94-2.45q0-1.63 1.25-2.53 1.26-.89 3.67-.89h1.67v-.88q0-.8-.42-1.24-.42-.45-1.24-.45-.73 0-1.12.36-.4.35-.4.98l-2.89-.01-.01-.06q-.07-1.41 1.22-2.43t3.4-1.02q1.98 0 3.23 1.01 1.24 1.01 1.24 2.88v4.58q0 .78.11 1.47.12.68.38 1.36m-5.73-2q.79 0 1.4-.39.62-.39.83-.9v-1.57h-1.67q-.95 0-1.45.48-.49.47-.49 1.15 0 .55.37.89t1.01.34m8.07-11.81h2.99v2.72h1.87v2.1h-1.87v5.65q0 .64.27.92.26.28.71.28.24 0 .41-.03.17-.02.39-.09l.26 2.17q-.45.15-.88.23t-.93.08q-1.55 0-2.39-.86-.83-.85-.83-2.69V38.9h-1.62v-2.1h1.62zm11.68 14.03q-2.4 0-3.84-1.54t-1.44-3.91v-.41q0-2.47 1.36-4.07t3.65-1.59q2.24 0 3.48 1.35 1.25 1.36 1.25 3.66v1.63h-6.63l-.02.07q.08 1.09.73 1.8.66.71 1.77.71 1 0 1.65-.2.66-.2 1.44-.63l.81 1.84q-.68.56-1.77.92-1.1.37-2.44.37m-.27-9.21q-.83 0-1.31.63-.49.64-.6 1.67l.03.06h3.67v-.27q0-.95-.44-1.52-.45-.57-1.35-.57M128 36.71l-.32 2.66-1.09-.03q-.67 0-1.1.28-.43.27-.66.77v7.5h-2.98V36.8h2.78l.13 1.64q.39-.88 1.01-1.36.62-.49 1.43-.49.23 0 .42.04.19.03.38.08m4.35.09v11.09h-3V36.8zm0-4.91v2.25h-3v-2.25zm11.97 16h-3q-.16-.38-.28-.8t-.17-.86q-.46.81-1.22 1.34-.75.54-1.79.54-1.75 0-2.69-.9t-.94-2.45q0-1.63 1.25-2.53 1.26-.89 3.67-.89h1.67v-.88q0-.8-.42-1.24-.42-.45-1.24-.45-.73 0-1.13.36-.39.35-.39.98l-2.89-.01-.01-.06q-.07-1.41 1.22-2.43t3.39-1.02q1.99 0 3.23 1.01t1.24 2.88v4.58q0 .78.12 1.47.12.68.38 1.36m-5.74-2q.79 0 1.41-.39.61-.39.83-.9v-1.57h-1.67q-.96 0-1.45.48-.49.47-.49 1.15 0 .55.37.89t1 .34m10.66-14v16h-3v-16zm8.46 12.94q0-.49-.48-.85t-1.77-.63q-1.97-.4-2.97-1.19-1-.78-1-2.13 0-1.44 1.21-2.44 1.2-1 3.22-1 2.12 0 3.38.99 1.26 1 1.21 2.52l-.02.06h-2.9q0-.67-.42-1.09-.43-.42-1.25-.42-.73 0-1.14.35-.42.36-.42.89 0 .51.44.84t1.77.59q2.05.41 3.04 1.2 1 .8 1 2.19 0 1.5-1.28 2.45-1.29.95-3.39.95-2.21 0-3.5-1.13-1.29-1.12-1.22-2.56l.02-.06h2.73q.03.89.59 1.29.55.4 1.44.4.83 0 1.27-.32.44-.33.44-.9"/></svg>