<svg xmlns="http://www.w3.org/2000/svg" width="200" height="80" viewBox="0 0 200 80"><rect width="100%" height="100%" fill="none"/><path fill="#334155" d="M42.985 45.48h-4.88V31.26h4.88q2.61 0 4.3 1.67 1.69 1.66 1.69 4.27v2.35q0 2.62-1.69 4.27-1.69 1.66-4.3 1.66m-.15-12.02h-1.88v9.83h1.88q1.54 0 2.41-1.03.87-1.04.87-2.71v-2.37q0-1.65-.87-2.69-.87-1.03-2.41-1.03m12.82 12.23q-2.29 0-3.66-1.47-1.36-1.46-1.36-3.72v-.39q0-2.35 1.29-3.88 1.29-1.52 3.47-1.51 2.14 0 3.32 1.29t1.18 3.48v1.56h-6.3l-.02.05q.07 1.05.69 1.72.62.68 1.69.68.95 0 1.57-.19.63-.19 1.37-.6l.77 1.75q-.64.53-1.69.88-1.04.35-2.32.35m-.26-8.77q-.79 0-1.25.6-.46.61-.56 1.59l.03.05h3.49v-.25q0-.91-.42-1.45-.43-.54-1.29-.54m11.88 5.65q0-.47-.46-.81-.45-.34-1.68-.61-1.88-.38-2.83-1.12-.95-.75-.95-2.04 0-1.37 1.15-2.32 1.14-.95 3.07-.95 2.02 0 3.22.95 1.19.94 1.14 2.39l-.02.06h-2.75q0-.64-.41-1.04-.4-.4-1.18-.4-.7 0-1.09.34-.4.33-.4.84 0 .49.42.8.41.32 1.68.56 1.96.39 2.9 1.15.95.75.95 2.08 0 1.43-1.22 2.33-1.22.91-3.22.91-2.11 0-3.34-1.07-1.22-1.07-1.16-2.44l.02-.06h2.6q.03.85.56 1.23t1.38.38q.79 0 1.2-.31.42-.31.42-.85m7.6-7.66v10.57h-2.86V34.91zm0-4.66v2.13h-2.86v-2.13zm1.9 10.24v-.21q0-2.5 1.09-4.03t3.05-1.53q.89 0 1.56.4.68.4 1.15 1.14l.23-1.35h2.46v10.52q0 2.06-1.35 3.19t-3.77 1.13q-.8 0-1.7-.22-.89-.22-1.66-.6l.53-2.13q.66.31 1.33.47.68.16 1.48.16 1.18 0 1.73-.49.55-.48.55-1.52v-.96q-.47.6-1.1.91-.64.32-1.46.32-1.94 0-3.03-1.44-1.09-1.43-1.09-3.76m2.85-.21v.21q0 1.39.47 2.18.47.8 1.52.8.66 0 1.11-.24.46-.24.73-.7v-4.59q-.27-.48-.73-.74-.45-.26-1.09-.26-1.04 0-1.53.92-.48.93-.48 2.42m8.83-5.37h2.66l.12 1.52q.53-.81 1.3-1.26t1.73-.45q1.6 0 2.5 1 .9 1.01.9 3.16v6.6h-2.86v-6.59q0-1.07-.43-1.51t-1.3-.44q-.57 0-1.02.22-.45.23-.75.65v7.67h-2.85zm24.23 6.86q0-.82-.58-1.32t-2.04-.94q-2.54-.73-3.84-1.74-1.3-1-1.3-2.75t1.49-2.86q1.49-1.1 3.81-1.1 2.34 0 3.82 1.24 1.47 1.25 1.42 3.07l-.02.06h-2.76q0-.99-.66-1.6t-1.85-.61q-1.14 0-1.77.51-.62.51-.62 1.3 0 .72.66 1.19.67.46 2.31.98 2.36.65 3.57 1.73 1.21 1.07 1.21 2.82 0 1.83-1.44 2.88-1.44 1.06-3.8 1.06-2.33 0-4.06-1.2t-1.68-3.36l.02-.05h2.78q0 1.27.77 1.86.78.59 2.17.59 1.16 0 1.77-.48.62-.48.62-1.28m5.31-9.44h2.85v2.58h1.78v2.01h-1.78v5.38q0 .61.26.88.25.26.68.26.22 0 .38-.03.17-.02.38-.08l.25 2.06q-.43.15-.84.22-.41.08-.89.08-1.48 0-2.27-.82-.8-.81-.8-2.56v-5.39h-1.54v-2.01h1.54zm13.15 13.15-.25-1.52q-.49.83-1.24 1.28t-1.73.45q-1.67 0-2.61-1.07t-.94-3.33v-6.38h2.84v6.4q0 1.15.39 1.66.39.5 1.15.5.69 0 1.17-.22.49-.22.8-.65v-7.69h2.86v10.57zm4.15-4.99v-.21q0-2.5 1.07-4.03 1.08-1.53 3.05-1.53.79 0 1.42.34.64.34 1.12.98v-5.79h2.86v15.23h-2.45l-.24-1.29q-.5.73-1.18 1.11-.67.39-1.55.39-1.95 0-3.03-1.43-1.07-1.43-1.07-3.77m2.84-.21v.21q0 1.39.47 2.18.46.8 1.52.8.61 0 1.07-.25t.76-.73v-4.5q-.3-.5-.75-.78-.46-.27-1.06-.27-1.05 0-1.53.92-.48.93-.48 2.42m11.88-5.37v10.57h-2.85V34.91zm0-4.66v2.13h-2.85v-2.13zm1.91 10.05v-.2q0-2.36 1.31-3.87 1.32-1.51 3.66-1.51t3.67 1.5q1.33 1.51 1.33 3.88v.2q0 2.39-1.33 3.89-1.32 1.5-3.65 1.5-2.35 0-3.67-1.5t-1.32-3.89m2.84-.2v.2q0 1.45.51 2.32.5.88 1.64.88 1.1 0 1.61-.88.52-.88.52-2.32v-.2q0-1.41-.52-2.3-.52-.88-1.63-.88t-1.62.89-.51 2.29"/></svg>