<svg xmlns="http://www.w3.org/2000/svg" width="200" height="80" viewBox="0 0 200 80"><rect width="100%" height="100%" fill="none"/><path fill="#334155" d="M49.57 40.195v4.82q-.58.76-1.78 1.35-1.21.58-3.06.58-2.35 0-3.83-1.45-1.49-1.46-1.49-3.79v-2.67q0-2.32 1.43-3.79 1.43-1.46 3.68-1.46 2.34 0 3.58 1.14 1.25 1.13 1.27 2.99l-.02.05h-2.41q-.07-1.02-.65-1.61t-1.7-.59q-1.18 0-1.9.91t-.72 2.34v2.69q0 1.46.75 2.37t2.01.91q.9 0 1.44-.19.55-.18.83-.46v-2.37h-2.27v-1.77zm4.69-7.14v13.71h-2.57v-13.71zm1.71 9.05v-.18q0-2.13 1.19-3.49t3.29-1.36q2.11 0 3.3 1.36 1.2 1.35 1.2 3.49v.18q0 2.15-1.2 3.5-1.19 1.34-3.29 1.34-2.11 0-3.3-1.34-1.19-1.35-1.19-3.5m2.56-.18v.18q0 1.3.46 2.09.45.79 1.47.79 1 0 1.46-.8.46-.79.46-2.08v-.18q0-1.27-.47-2.07-.46-.8-1.46-.8t-1.46.81q-.46.8-.46 2.06m16.58.16v.19q0 2.13-.95 3.4t-2.75 1.27q-.82 0-1.44-.34-.62-.35-1.05-1.02l-.19 1.18h-2.2v-13.71h2.56v5.21q.41-.57.98-.88.58-.31 1.33-.31 1.81 0 2.76 1.37t.95 3.64m-2.56.19v-.19q0-1.38-.41-2.2-.41-.81-1.39-.81-.6 0-1.01.25-.42.25-.65.72v4.02q.23.43.65.66t1.02.23q1 0 1.39-.7.4-.7.4-1.98m12.29 4.49h-2.57q-.14-.33-.24-.69t-.15-.73q-.39.69-1.04 1.15-.65.45-1.54.45-1.5 0-2.3-.76-.81-.77-.81-2.1 0-1.4 1.07-2.17 1.08-.77 3.15-.77h1.43v-.75q0-.69-.36-1.07-.36-.37-1.07-.37-.62 0-.96.3t-.34.84l-2.47-.01-.01-.05q-.06-1.21 1.04-2.08 1.11-.88 2.91-.88 1.71 0 2.77.87t1.06 2.47v3.92q0 .67.1 1.26.11.59.33 1.17m-4.92-1.71q.68 0 1.21-.34.52-.33.71-.77v-1.35h-1.43q-.82 0-1.24.41-.43.41-.43.99 0 .48.32.77t.86.29m9.13-12v13.71h-2.56v-13.71zm11.74 13.71h-4.93v-12.8h4.32q2.26 0 3.53.88 1.26.88 1.26 2.63 0 .89-.47 1.59t-1.37 1.05q1.16.24 1.73 1.05.58.81.58 1.87 0 1.84-1.22 2.79-1.21.94-3.43.94m.19-5.66h-2.56v3.69h2.37q1.02 0 1.55-.44.54-.45.54-1.32 0-.94-.46-1.43-.45-.5-1.44-.5m-2.56-5.16v3.38h1.85q1.03 0 1.58-.42t.55-1.23q0-.89-.55-1.31-.56-.42-1.67-.42zm14.81 10.82-.23-1.37q-.43.75-1.11 1.15t-1.56.4q-1.5 0-2.35-.96t-.85-2.99v-5.74h2.56v5.76q0 1.03.35 1.49.35.45 1.04.45.61 0 1.05-.2t.73-.58v-6.92h2.56v9.51zm6.82-9.51v9.51h-2.56v-9.51zm0-4.2v1.92h-2.56v-1.92zm4.81 0v13.71h-2.57v-13.71zm1.71 9.22v-.19q0-2.25.98-3.63.97-1.38 2.73-1.38.72 0 1.29.31t1 .88v-5.21h2.57v13.71h-2.2l-.21-1.16q-.45.66-1.06 1t-1.4.34q-1.75 0-2.72-1.28-.98-1.28-.98-3.39m2.56-.19v.19q0 1.25.42 1.96.43.72 1.38.72.55 0 .96-.22.42-.23.68-.66v-4.05q-.26-.45-.67-.7t-.96-.25q-.94 0-1.37.83-.44.84-.44 2.18m12.21 4.86q-2.06 0-3.29-1.31-1.23-1.32-1.23-3.35v-.35q0-2.12 1.17-3.49 1.16-1.37 3.12-1.37 1.93 0 2.99 1.16t1.06 3.14v1.4h-5.67l-.02.05q.07.94.63 1.55.55.61 1.51.61.86 0 1.42-.18.56-.17 1.23-.54l.69 1.59q-.58.47-1.52.78t-2.09.31m-.23-7.89q-.71 0-1.12.55-.42.54-.51 1.43l.02.04h3.15v-.23q0-.81-.38-1.3t-1.16-.49m10.82-1.87-.27 2.28-.94-.03q-.57 0-.94.24-.37.23-.56.67v6.42h-2.56v-9.51h2.38l.11 1.41q.34-.75.87-1.17t1.23-.42q.19 0 .35.04.16.03.33.07m6.17 6.96q0-.42-.41-.73t-1.51-.54q-1.69-.35-2.55-1.02-.85-.67-.85-1.83 0-1.23 1.03-2.09t2.76-.86q1.82 0 2.9.86 1.07.85 1.03 2.15l-.02.05H158q0-.57-.36-.93t-1.07-.36q-.62 0-.98.3-.35.31-.35.76 0 .44.37.73.37.28 1.52.5 1.75.35 2.61 1.03.85.68.85 1.88 0 1.28-1.1 2.09t-2.9.81q-1.9 0-3-.96-1.11-.96-1.05-2.19l.02-.05h2.34q.03.76.5 1.1.48.35 1.24.35.71 0 1.09-.28.37-.29.37-.77"/></svg>