<svg width="100" height="100" viewBox="0 0 100 100" fill="none" xmlns="http://www.w3.org/2000/svg">
<g filter="url(#filter0_i_3638_33841)">
<path fill-rule="evenodd" clip-rule="evenodd" d="M46.7984 24.4178C48.8621 23.6413 51.1376 23.6413 53.2012 24.4178L74.5445 32.4483C76.3162 33.1149 77.4893 34.8097 77.4893 36.7026L77.4893 63.0103C77.4893 64.8868 76.3361 66.5704 74.5864 67.2485L53.285 75.5041C51.1715 76.3233 48.8282 76.3233 46.7146 75.5041L25.4132 67.2485C23.6635 66.5704 22.5104 64.8868 22.5104 63.0103L22.5104 36.7026C22.5104 34.8097 23.6835 33.1149 25.4551 32.4483L46.7984 24.4178Z" fill="white"/>
</g>
<g filter="url(#filter1_i_3638_33841)">
<path fill-rule="evenodd" clip-rule="evenodd" d="M46.5643 43.6169C48.7667 44.516 51.2337 44.516 53.4361 43.6169L72.8315 35.6991C73.3098 35.5039 73.3004 34.8232 72.8168 34.6413L53.2016 27.261C51.1379 26.4845 48.8624 26.4845 46.7988 27.261L27.1836 34.6413C26.7 34.8232 26.6906 35.5039 27.1689 35.6991L46.5643 43.6169Z" fill="url(#paint0_linear_3638_33841)"/>
</g>
<g filter="url(#filter2_dd_3638_33841)">
<g filter="url(#filter3_iii_3638_33841)">
<path fill-rule="evenodd" clip-rule="evenodd" d="M79.6642 75.7704C84.3872 73.94 87.4999 69.3953 87.4999 64.33L87.4999 57.0977C87.4999 55.8425 86.4824 54.8249 85.2272 54.8249C83.972 54.8249 82.9545 55.8425 82.9545 57.0977L82.9545 64.33C82.9545 67.5188 80.9949 70.3798 78.0216 71.5321L72.1656 73.8017C70.9952 74.2553 70.4142 75.5718 70.8678 76.7421C71.3213 77.9125 72.6378 78.4936 73.8082 78.04L79.6642 75.7704ZM85.2272 44.9057C86.4824 44.9057 87.4999 43.8882 87.4999 42.633L87.4999 35.4007C87.4999 30.2911 84.3334 25.7164 79.5511 23.9171L73.6836 21.7094C72.5088 21.2674 71.1981 21.8614 70.7561 23.0362C70.3141 24.211 70.9081 25.5217 72.0829 25.9637L77.9504 28.1714C80.961 29.3041 82.9545 32.184 82.9545 35.4007L82.9545 42.633C82.9545 43.8882 83.972 44.9057 85.2272 44.9057ZM63.394 79.6387C62.9404 78.4683 61.6239 77.8872 60.4535 78.3408L54.5975 80.6104C51.6397 81.7568 48.3603 81.7568 45.4024 80.6104L39.5464 78.3408C38.376 77.8872 37.0595 78.4683 36.606 79.6387C36.1524 80.8091 36.7334 82.1255 37.9038 82.5791L43.7598 84.8487C47.7744 86.4046 52.2255 86.4046 56.2401 84.8487L62.0961 82.5791C63.2665 82.1255 63.8476 80.8091 63.394 79.6387ZM63.2753 20.2215C63.7173 19.0467 63.1233 17.736 61.9485 17.294L56.0809 15.0863C52.1611 13.6115 47.8388 13.6115 43.919 15.0863L38.0514 17.294C36.8767 17.736 36.2826 19.0467 36.7247 20.2215C37.1667 21.3963 38.4774 21.9903 39.6521 21.5483L45.5197 19.3406C48.4077 18.254 51.5922 18.254 54.4802 19.3406L60.3478 21.5483C61.5226 21.9903 62.8333 21.3963 63.2753 20.2215ZM29.2438 23.0362C28.8018 21.8614 27.4911 21.2674 26.3164 21.7094L20.4488 23.9171C15.6666 25.7164 12.5 30.2911 12.5 35.4007L12.5 42.633C12.5 43.8882 13.5175 44.9058 14.7727 44.9058C16.0279 44.9058 17.0455 43.8882 17.0455 42.633L17.0455 35.4007C17.0455 32.1841 19.0389 29.3041 22.0495 28.1714L27.9171 25.9637C29.0918 25.5217 29.6859 24.211 29.2438 23.0362ZM29.1322 76.7421C29.5858 75.5718 29.0047 74.2553 27.8343 73.8017L21.9783 71.5321C19.005 70.3798 17.0455 67.5188 17.0455 64.33L17.0455 57.0977C17.0455 55.8425 16.0279 54.8249 14.7727 54.8249C13.5175 54.8249 12.5 55.8425 12.5 57.0977L12.5 64.33C12.5 69.3953 15.6127 73.94 20.3357 75.7704L26.1917 78.04C27.3621 78.4936 28.6786 77.9125 29.1322 76.7421Z" fill="#9B4BFA"/>
</g>
</g>
<defs>
<filter id="filter0_i_3638_33841" x="20.9054" y="23.8359" width="56.5838" height="53.8866" filterUnits="userSpaceOnUse" color-interpolation-filters="sRGB">
<feFlood flood-opacity="0" result="BackgroundImageFix"/>
<feBlend mode="normal" in="SourceGraphic" in2="BackgroundImageFix" result="shape"/>
<feColorMatrix in="SourceAlpha" type="matrix" values="0 0 0 0 0 0 0 0 0 0 0 0 0 0 0 0 0 0 127 0" result="hardAlpha"/>
<feOffset dx="-1.60532" dy="1.60532"/>
<feGaussianBlur stdDeviation="0.802662"/>
<feComposite in2="hardAlpha" operator="arithmetic" k2="-1" k3="1"/>
<feColorMatrix type="matrix" values="0 0 0 0 0.258333 0 0 0 0 0.0247569 0 0 0 0 0.164903 0 0 0 0.37 0"/>
<feBlend mode="multiply" in2="shape" result="effect1_innerShadow_3638_33841"/>
</filter>
<filter id="filter1_i_3638_33841" x="25.2101" y="26.6797" width="47.9745" height="19.2186" filterUnits="userSpaceOnUse" color-interpolation-filters="sRGB">
<feFlood flood-opacity="0" result="BackgroundImageFix"/>
<feBlend mode="normal" in="SourceGraphic" in2="BackgroundImageFix" result="shape"/>
<feColorMatrix in="SourceAlpha" type="matrix" values="0 0 0 0 0 0 0 0 0 0 0 0 0 0 0 0 0 0 127 0" result="hardAlpha"/>
<feOffset dx="-1.60532" dy="1.60532"/>
<feGaussianBlur stdDeviation="0.802662"/>
<feComposite in2="hardAlpha" operator="arithmetic" k2="-1" k3="1"/>
<feColorMatrix type="matrix" values="0 0 0 0 0.258333 0 0 0 0 0.0247569 0 0 0 0 0.164903 0 0 0 0.37 0"/>
<feBlend mode="multiply" in2="shape" result="effect1_innerShadow_3638_33841"/>
</filter>
<filter id="filter2_dd_3638_33841" x="1.13636" y="9.43501" width="92.0455" height="89.0806" filterUnits="userSpaceOnUse" color-interpolation-filters="sRGB">
<feFlood flood-opacity="0" result="BackgroundImageFix"/>
<feColorMatrix in="SourceAlpha" type="matrix" values="0 0 0 0 0 0 0 0 0 0 0 0 0 0 0 0 0 0 127 0" result="hardAlpha"/>
<feOffset dx="-0.568182" dy="0.568182"/>
<feGaussianBlur stdDeviation="0.568182"/>
<feColorMatrix type="matrix" values="0 0 0 0 0 0 0 0 0 0 0 0 0 0 0 0 0 0 0.06 0"/>
<feBlend mode="normal" in2="BackgroundImageFix" result="effect1_dropShadow_3638_33841"/>
<feColorMatrix in="SourceAlpha" type="matrix" values="0 0 0 0 0 0 0 0 0 0 0 0 0 0 0 0 0 0 127 0" result="hardAlpha"/>
<feOffset dx="-2.84091" dy="3.97727"/>
<feGaussianBlur stdDeviation="4.26136"/>
<feColorMatrix type="matrix" values="0 0 0 0 0 0 0 0 0 0 0 0 0 0 0 0 0 0 0.15 0"/>
<feBlend mode="normal" in2="effect1_dropShadow_3638_33841" result="effect2_dropShadow_3638_33841"/>
<feBlend mode="normal" in="SourceGraphic" in2="effect2_dropShadow_3638_33841" result="shape"/>
</filter>
<filter id="filter3_iii_3638_33841" x="12.5" y="12.8441" width="76.1364" height="73.7397" filterUnits="userSpaceOnUse" color-interpolation-filters="sRGB">
<feFlood flood-opacity="0" result="BackgroundImageFix"/>
<feBlend mode="normal" in="SourceGraphic" in2="BackgroundImageFix" result="shape"/>
<feColorMatrix in="SourceAlpha" type="matrix" values="0 0 0 0 0 0 0 0 0 0 0 0 0 0 0 0 0 0 127 0" result="hardAlpha"/>
<feOffset dx="0.568182" dy="-0.568182"/>
<feGaussianBlur stdDeviation="0.284091"/>
<feComposite in2="hardAlpha" operator="arithmetic" k2="-1" k3="1"/>
<feColorMatrix type="matrix" values="0 0 0 0 0 0 0 0 0 0 0 0 0 0 0 0 0 0 0.1 0"/>
<feBlend mode="multiply" in2="shape" result="effect1_innerShadow_3638_33841"/>
<feColorMatrix in="SourceAlpha" type="matrix" values="0 0 0 0 0 0 0 0 0 0 0 0 0 0 0 0 0 0 127 0" result="hardAlpha"/>
<feOffset dx="1.13636" dy="-1.13636"/>
<feGaussianBlur stdDeviation="1.70455"/>
<feComposite in2="hardAlpha" operator="arithmetic" k2="-1" k3="1"/>
<feColorMatrix type="matrix" values="0 0 0 0 0 0 0 0 0 0 0 0 0 0 0 0 0 0 0.1 0"/>
<feBlend mode="multiply" in2="effect1_innerShadow_3638_33841" result="effect2_innerShadow_3638_33841"/>
<feColorMatrix in="SourceAlpha" type="matrix" values="0 0 0 0 0 0 0 0 0 0 0 0 0 0 0 0 0 0 127 0" result="hardAlpha"/>
<feOffset dy="0.568182"/>
<feGaussianBlur stdDeviation="0.426136"/>
<feComposite in2="hardAlpha" operator="arithmetic" k2="-1" k3="1"/>
<feColorMatrix type="matrix" values="0 0 0 0 1 0 0 0 0 1 0 0 0 0 1 0 0 0 0.25 0"/>
<feBlend mode="normal" in2="effect2_innerShadow_3638_33841" result="effect3_innerShadow_3638_33841"/>
</filter>
<linearGradient id="paint0_linear_3638_33841" x1="74.1729" y1="30.963" x2="57.3377" y2="59.5765" gradientUnits="userSpaceOnUse">
<stop stop-color="#0090FF"/>
<stop offset="0.698054" stop-color="#8DC8E8"/>
</linearGradient>
</defs>
</svg>
